<svg width="20" height="24" viewBox="0 0 20 24" fill="none" xmlns="http://www.w3.org/2000/svg">
<path fill-rule="evenodd" clip-rule="evenodd" d="M0.0585013 13.1853C-0.141275 11.9866 0.0585014 8.87013 2.45581 5.99336C4.85312 3.11658 4.65332 7.19201 4.25376 9.58932L1.25712 14.3839L0.0585013 13.1853ZM1.20031 12.2132L3.10856 9.16003C3.18665 8.65065 3.25178 8.08369 3.28171 7.54505C3.29559 7.29521 3.30111 7.06391 3.29869 6.85542C1.65624 8.87541 1.23352 10.9847 1.20031 12.2132Z" fill="white"/>
<path d="M1.76327 16.9131C1.82321 16.9131 1.93108 17.0329 2.08691 17.1168C2.42457 17.3016 2.78258 17.4464 3.15371 17.5483L3.35748 17.6203L3.06981 17.9799L2.92597 18.1836C2.70993 18.5284 2.54822 18.9044 2.44651 19.2984H2.37459C2.3282 19.4748 2.30009 19.6556 2.29068 19.8378C2.22382 20.3687 2.27629 20.9078 2.44426 21.4159C2.61223 21.9239 2.89146 22.3881 3.26159 22.7745C4.02228 23.5271 5.04443 23.9566 6.11439 23.9731C6.39694 24.009 6.68289 24.009 6.96544 23.9731C10.3041 22.9762 13.404 21.3079 16.0752 19.0706L16.4468 18.771C16.6266 18.6271 16.7704 18.4953 16.9023 18.3754C17.5376 17.8001 19.2996 15.9781 19.3595 14.6955C19.4075 13.1852 18.4605 11.9866 15.1043 10.7879C16.1971 9.40584 17.1526 7.92047 17.9571 6.3529C17.9937 6.23521 18.0217 6.11503 18.041 5.99331C18.4605 4.13539 17.0701 2.13364 14.6608 1.11478C13.2624 0.453203 11.747 0.0743697 10.2018 3.05176e-05C9.13096 0.0153117 8.07932 0.286595 7.13471 0.791222C6.19009 1.29585 5.37994 2.01917 4.7719 2.90078C2.99656 4.85679 1.59856 7.12448 0.648523 9.58927V9.66119C0.648523 9.7451 0.588591 9.81702 0.564618 9.90092C0.540644 9.98483 0.564617 10.1047 0.468725 10.2126V10.4163C0.396795 10.5359 0.332731 10.66 0.27694 10.7879H0.252967C0.252967 10.7879 0.252967 10.7879 0.252967 10.8598C0.252967 10.9318 0.252967 11.1355 0.169061 11.2674C0.163287 11.3152 0.163287 11.3635 0.169061 11.4112V11.6869V11.9267C0.169061 11.9986 0.169061 12.0825 0.169061 12.1544C0.163132 12.2142 0.163132 12.2744 0.169061 12.3342C-0.0175706 13.1702 0.0327649 14.0416 0.314405 14.8505C0.596046 15.6595 1.09782 16.3738 1.76327 16.9131Z" fill="white"/>
<path d="M16.0153 12.6938C14.6909 12.1335 13.3386 11.6414 11.9639 11.2195C13.952 9.83202 15.4632 7.86451 16.291 5.5858C17.142 2.97273 13.1265 1.70216 12.0478 1.42647C11.1744 1.20289 10.2562 1.22566 9.39508 1.49226C8.53392 1.75886 7.76347 2.25886 7.16923 2.93677C7.16923 2.93677 2.07494 7.94715 1.75131 12.6339C1.64333 13.1495 1.67901 13.6849 1.85445 14.1816C2.02989 14.6783 2.33835 15.1173 2.74619 15.4507L2.84208 15.5227C3.0686 15.6602 3.31534 15.7614 3.57326 15.8223C4.58013 16.1699 6.18633 16.6134 7.50485 16.9491C6.49017 17.5964 5.54255 18.3432 4.67603 19.1786L4.50821 19.3823V19.4423C4.39491 19.614 4.31368 19.8049 4.26848 20.0056C4.15252 20.4713 4.22628 20.9641 4.47354 21.3754C4.7208 21.7868 5.12131 22.0831 5.587 22.1992C5.88637 22.2714 6.19862 22.2714 6.49798 22.1992H6.58189C8.79565 21.4755 10.9098 20.4768 12.8748 19.2265C16.6866 16.7812 19.5034 14.1082 16.0153 12.6938Z" fill="#FFCB39"/>
<path d="M16.0154 12.6938C13.2944 11.591 11.9639 11.2314 11.9639 11.2314C13.9507 9.83739 15.4613 7.86658 16.2911 5.58574C17.19 2.97267 13.1626 1.7021 12.0958 1.4384C11.2165 1.20527 10.2896 1.22198 9.41936 1.48667C8.54908 1.75135 7.76986 2.25351 7.16929 2.93671C7.16929 2.93671 2.05103 7.95908 1.72739 12.6458C1.61805 13.1614 1.65307 13.6972 1.8286 14.1942C2.00413 14.6912 2.31337 15.1301 2.72228 15.4627H2.81817C3.05097 15.5962 3.30104 15.697 3.56134 15.7623C4.56821 16.1099 6.1744 16.5415 7.49293 16.8891C6.47963 17.5559 5.53594 18.3229 4.67609 19.1785L4.50827 19.3823V19.4542C4.39511 19.6217 4.31384 19.8086 4.26854 20.0056C4.19294 20.3114 4.19849 20.6317 4.28464 20.9348C4.3708 21.2379 4.53457 21.5132 4.75977 21.7336C4.98497 21.9539 5.2638 22.1117 5.56867 22.1912C5.87353 22.2708 6.19389 22.2694 6.49804 22.1871H6.56996C8.78566 21.4588 10.9032 20.4604 12.8749 19.2145C16.6866 16.7812 19.5035 14.1202 16.0154 12.6938Z" fill="url(#paint0_linear_1_1594)"/>
<path opacity="0.5" d="M16.0274 12.6698C13.2944 11.5671 11.9639 11.2075 11.9639 11.2075C13.9501 9.81504 15.4639 7.84958 16.3031 5.57379C17.2021 2.94873 13.1626 1.67816 12.0958 1.41445C11.2166 1.17991 10.2893 1.19593 9.41877 1.4607C8.54821 1.72547 7.76904 2.22844 7.16932 2.91277C7.16932 2.91277 2.03907 7.93514 1.72742 12.6219C1.61671 13.1364 1.64987 13.6714 1.82325 14.1683C1.99664 14.6652 2.30355 15.1048 2.71032 15.4387H2.80621C3.03479 15.5722 3.28089 15.673 3.53739 15.7384C4.55625 16.086 6.16245 16.5175 7.48097 16.8651C6.47045 17.5348 5.5342 18.3103 4.6881 19.1785C4.62484 19.2444 4.5686 19.3167 4.52029 19.3943V19.4662C4.40314 19.6329 4.3178 19.8199 4.26857 20.0176C4.192 20.3247 4.19731 20.6465 4.28396 20.9509C4.37061 21.2554 4.53558 21.5317 4.7624 21.7525C4.98922 21.9733 5.26996 22.1307 5.57662 22.209C5.88328 22.2874 6.20513 22.284 6.51005 22.1991H6.58197C8.76839 21.4952 10.8583 20.5207 12.803 19.2984C16.6866 16.7812 19.5155 14.0962 16.0274 12.6698Z" fill="url(#paint1_linear_1_1594)"/>
<g style="mix-blend-mode:multiply" opacity="0.5">
<path d="M9.63836 15.5105C8.31984 15.1749 5.11943 14.168 4.10057 13.8204C3.84408 13.7551 3.59797 13.6542 3.36939 13.5208H3.2735C2.8477 13.185 2.52591 12.7354 2.34556 12.224C2.1652 11.7126 2.13367 11.1606 2.25464 10.632C2.25464 10.5002 2.25464 10.3683 2.25464 10.2365C1.96597 11.0071 1.78448 11.8137 1.71525 12.6338C1.60728 13.1494 1.64296 13.6847 1.81839 14.1814C1.99383 14.6782 2.30229 15.1172 2.71013 15.4506L2.80603 15.5225C3.04365 15.6637 3.3028 15.7649 3.57317 15.8222C4.18448 16.0379 6.65371 16.7212 7.50476 16.9489C8.176 16.4215 8.90718 16.002 9.63836 15.5105Z" fill="url(#paint2_linear_1_1594)"/>
<path d="M11.9637 11.2194C13.9508 9.83079 15.4617 7.86365 16.2909 5.5857C16.4035 5.26686 16.4364 4.92531 16.3868 4.59082C15.6075 6.51552 14.2289 8.13794 12.4552 9.21763C11.4483 9.97278 11.1247 10.9077 11.9637 11.2194Z" fill="url(#paint3_linear_1_1594)"/>
<path d="M13.2943 17.3206C10.3096 19.2744 7.90034 20.5569 6.01845 20.2812C5.73317 20.2206 5.46844 20.0872 5.25 19.8939C5.03155 19.7007 4.86683 19.4542 4.77185 19.1785H4.67596L4.50815 19.3822V19.4422C4.39484 19.6139 4.31362 19.8048 4.26841 20.0055C4.15245 20.4713 4.22621 20.964 4.47347 21.3753C4.72073 21.7867 5.12124 22.083 5.58694 22.1991C5.89039 22.271 6.20645 22.271 6.5099 22.1991H6.58182C8.79558 21.4754 10.9098 20.4767 12.8748 19.2264C15.8714 17.2606 18.2328 15.2229 17.5495 13.7486C16.3284 15.1562 14.8922 16.3617 13.2943 17.3206Z" fill="url(#paint4_linear_1_1594)"/>
</g>
<path style="mix-blend-mode:screen" d="M5.25137 6.65255C5.25137 6.65255 7.64868 1.57025 11.2447 2.02574C14.8406 2.48123 16.4109 4.35113 15.404 5.62171C14.9466 6.17137 14.5224 6.74774 14.1334 7.34777C14.1334 7.34777 14.1933 4.79464 10.7172 4.95046C8.76448 4.94805 6.85752 5.54188 5.25137 6.65255Z" fill="url(#paint5_linear_1_1594)"/>
<path d="M10.885 10.4883C10.885 10.4883 10.0579 11.0157 12.2874 11.6869C14.5169 12.3582 17.4776 13.425 16.5546 14.1921L15.1162 15.3908C15.1162 15.3908 13.6658 14.3839 11.1367 12.8736C8.60751 11.3633 10.3695 10.9558 10.885 10.4883Z" fill="url(#paint6_linear_1_1594)"/>
<path opacity="0.4" d="M6.05438 18.759C6.05438 18.759 9.65035 16.0979 10.6572 15.6185C11.6641 15.139 9.41062 17.872 6.05438 18.759Z" fill="url(#paint7_linear_1_1594)"/>
<path style="mix-blend-mode:multiply" opacity="0.3" d="M2.20666 11.7349C2.20666 11.7349 2.20666 13.2213 4.29232 14.0363C5.91793 14.6978 7.59851 15.2153 9.31469 15.5826L8.11603 16.5295C6.3495 16.2285 4.63954 15.6586 3.04572 14.8394C1.95494 14.2042 2.01487 13.1853 2.20666 11.7349Z" fill="url(#paint8_linear_1_1594)"/>
<path d="M4.93977 19.8378C4.93977 19.8378 6.13842 21.2162 8.53573 20.1255C10.933 19.0347 14.529 16.949 14.529 16.949C14.529 16.949 10.3577 20.7608 6.49802 21.456C4.77195 21.7556 4.93977 19.8378 4.93977 19.8378Z" fill="url(#paint9_linear_1_1594)"/>
<path d="M4.16072 20.3772C4.18852 20.8033 4.38241 21.2015 4.70069 21.4861C5.01898 21.7708 5.43625 21.9192 5.86281 21.8995C8.46389 21.8995 14.7808 18.2076 15.8476 17.1049C15.8476 17.1049 11.3167 21.2162 6.45015 22.4269C6.11321 22.4904 5.76577 22.4688 5.43927 22.3641C5.11277 22.2595 4.81752 22.0751 4.58025 21.8276C4.40722 21.632 4.27982 21.4004 4.20727 21.1496C4.13471 20.8987 4.11881 20.6349 4.16072 20.3772Z" fill="#FF9100"/>
<path opacity="0.5" d="M8.77547 15.6425C6.74836 15.0914 4.78092 14.3406 2.90205 13.4011C2.90205 13.4011 4.30448 15.247 8.77547 15.6425Z" fill="#FF5000"/>
<path opacity="0.3" d="M11.7 10.2605C11.7 10.2605 12.563 9.43347 13.474 8.6903C14.334 7.93383 15.1133 7.09026 15.7994 6.17313C15.3527 7.17325 14.6895 8.06168 13.8576 8.77421C12.5271 9.86499 12.0716 9.87697 11.7 10.2605Z" fill="#FF5000"/>
<defs>
<linearGradient id="paint0_linear_1_1594" x1="7.50192" y1="22.2435" x2="12.5871" y2="1.63343" gradientUnits="userSpaceOnUse">
<stop stop-color="#E87400"/>
<stop offset="0.63" stop-color="#FFDC3D"/>
</linearGradient>
<linearGradient id="paint1_linear_1_1594" x1="7.70294" y1="21.4289" x2="12.099" y2="3.61184" gradientUnits="userSpaceOnUse">
<stop stop-color="#E87400"/>
<stop offset="1" stop-color="#FFFF8E"/>
</linearGradient>
<linearGradient id="paint2_linear_1_1594" x1="1.61755" y1="12.7667" x2="9.83367" y2="14.7939" gradientUnits="userSpaceOnUse">
<stop stop-color="#E87400"/>
<stop offset="0.63" stop-color="#FFDC3D"/>
</linearGradient>
<linearGradient id="paint3_linear_1_1594" x1="12.2704" y1="7.41965" x2="15.7035" y2="8.26671" gradientUnits="userSpaceOnUse">
<stop stop-color="#E87400"/>
<stop offset="0.63" stop-color="#FFDC3D"/>
</linearGradient>
<linearGradient id="paint4_linear_1_1594" x1="5.09726" y1="16.4773" x2="16.4555" y2="19.2797" gradientUnits="userSpaceOnUse">
<stop stop-color="#E87400"/>
<stop offset="0.63" stop-color="#FFDC3D"/>
</linearGradient>
<linearGradient id="paint5_linear_1_1594" x1="11.3562" y1="2.21866" x2="10.1818" y2="6.97842" gradientUnits="userSpaceOnUse">
<stop stop-color="white"/>
<stop offset="1" stop-color="#FFCB39"/>
</linearGradient>
<linearGradient id="paint6_linear_1_1594" x1="13.6197" y1="11.3083" x2="12.8846" y2="14.2875" gradientUnits="userSpaceOnUse">
<stop stop-color="white"/>
<stop offset="1" stop-color="#FFCB39"/>
</linearGradient>
<linearGradient id="paint7_linear_1_1594" x1="8.96298" y1="15.2705" x2="8.13028" y2="18.6454" gradientUnits="userSpaceOnUse">
<stop stop-color="white"/>
<stop offset="1" stop-color="#FFCB39"/>
</linearGradient>
<linearGradient id="paint8_linear_1_1594" x1="1.6037" y1="17.7266" x2="6.11081" y2="13.3199" gradientUnits="userSpaceOnUse">
<stop stop-color="#FFD42C"/>
<stop offset="1" stop-color="#FF4D00"/>
</linearGradient>
<linearGradient id="paint9_linear_1_1594" x1="13.5244" y1="17.1491" x2="6.85334" y2="20.2687" gradientUnits="userSpaceOnUse">
<stop stop-color="#FF4D00"/>
<stop offset="1" stop-color="#FF4D00"/>
</linearGradient>
</defs>
</svg>
