<svg width="62" height="32" viewBox="0 0 62 32" fill="none" xmlns="http://www.w3.org/2000/svg">
<path fill-rule="evenodd" clip-rule="evenodd" d="M10.0161 0.180439C8.86466 -0.11276 7.65053 -0.0474315 6.53751 0.367591C5.90856 0.816621 5.47227 1.48464 5.31529 2.239C5.43843 2.44373 5.5333 2.66404 5.59734 2.89398C5.59734 3.02498 5.9358 3.08112 6.63152 3.08112C7.7954 3.21671 8.96833 2.91653 9.92212 2.239C10.2422 1.91564 10.4975 1.53456 10.6743 1.11614L10.0161 0.180439ZM45.4606 0.554729C44.8346 0.510115 44.2062 0.510115 43.5802 0.554729C43.3454 0.657203 43.1475 0.828562 43.0131 1.04592C42.8787 1.26329 42.8142 1.5163 42.8281 1.77114C42.8281 2.83785 42.9785 3.11855 43.2982 2.61327V2.98755C43.7355 3.03733 44.1771 3.03733 44.6144 2.98755C44.8838 3.01326 45.1557 2.98512 45.414 2.90478C45.6724 2.82443 45.9119 2.69351 46.1187 2.5197C46.3029 2.25509 46.4604 1.97301 46.5888 1.67757C46.3074 1.2196 45.9207 0.834752 45.4606 0.554729ZM12.0845 7.19821C13.2929 7.23376 14.4992 7.0758 15.6572 6.73036V5.88823L15.0931 4.76539C13.4008 4.52211 12.2726 4.76539 11.7085 5.23324C11.7542 5.90087 11.8805 6.56059 12.0845 7.19821ZM28.2555 10.4732C27.9853 10.6774 27.7027 10.8649 27.4093 11.0346C26.6572 11.5399 26.2811 11.9703 26.2811 12.3446C26.2811 13.4674 26.4315 13.8417 26.7512 13.4674H26.9392C27.3765 13.5172 27.8181 13.5172 28.2555 13.4674C28.87 13.4955 29.4731 13.2954 29.9478 12.906C29.9478 12.906 30.0794 12.6253 30.1358 12.0639C29.5613 11.4753 28.9317 10.9426 28.2555 10.4732ZM27.5973 16.5552C27.6809 17.1344 27.8389 17.7004 28.0674 18.2395H32.3922C32.6856 18.1652 32.9461 17.9965 33.1332 17.7596C33.3202 17.5226 33.4233 17.2308 33.4264 16.9295V16.5552C32.3975 16.2155 31.3098 16.0881 30.2298 16.181C29.3371 16.1526 28.4463 16.2793 27.5973 16.5552ZM35.7768 7.85321C36.0309 8.08116 36.328 8.25646 36.6508 8.36892C36.9736 8.48138 37.3158 8.52873 37.6572 8.5082C38.1225 8.54424 38.5878 8.43814 38.991 8.20407C39.3942 7.97 39.716 7.61909 39.9136 7.19821L39.2555 6.16894C37.803 5.55617 36.2068 5.36164 34.6486 5.60752V7.19821C34.9849 7.47822 35.3664 7.69968 35.7768 7.85321ZM44.9905 20.7659L42.9221 21.1402C43.0097 21.7792 43.1673 22.4067 43.3922 23.0116H46.7768C47.3668 22.6675 47.8287 22.1421 48.0931 21.5145V21.1402C47.1052 20.7649 46.0399 20.6364 44.9905 20.7659ZM35.0247 25.6316V26.2865C35.3359 26.5366 35.6196 26.8189 35.8708 27.1287C36.3618 27.4786 36.9612 27.6443 37.5632 27.5965C38.128 27.583 38.6792 27.4217 39.1614 27.1287C39.4474 26.9871 39.6924 26.7753 39.8733 26.5134C40.0543 26.2515 40.1652 25.948 40.1956 25.6316C40.1956 24.883 40.1956 24.4713 39.9136 24.4151H39.6315H36.1529L35.5888 24.6023C35.3139 24.8906 35.1195 25.2454 35.0247 25.6316ZM50.6315 16.2745C50.5832 16.7599 50.6814 17.2486 50.9136 17.6781C51.3014 18.148 51.7895 18.5262 52.3424 18.7851C52.8952 19.0441 53.4991 19.1773 54.1102 19.1752C54.3738 19.2089 54.6417 19.175 54.8885 19.0768C55.1353 18.9785 55.3528 18.8191 55.5204 18.6138C55.7478 18.3423 55.9087 18.022 55.9905 17.6781L55.5204 16.8359C53.9447 16.3219 52.2877 16.0999 50.6315 16.181V16.2745ZM61.9136 11.5024C61.9136 10.6977 61.9136 10.2486 61.7255 10.1925C61.3239 10.1636 60.936 10.0349 60.5973 9.81818C59.5581 10.4756 58.6627 11.3348 57.9649 12.3446C58.1872 12.4543 58.3805 12.6145 58.529 12.8124C58.9763 13.0963 59.5043 13.2277 60.0332 13.1867C60.8418 13.1867 61.3495 13.0557 61.5375 12.8124C61.7255 12.5691 61.7631 12.6253 61.8196 12.251C61.876 12.7189 61.9136 12.4756 61.9136 11.4089V11.5024Z" fill="#9A79FF"/>
<path fill-rule="evenodd" clip-rule="evenodd" d="M1.46038 10.4733C1.34908 10.64 1.22324 10.7965 1.08432 10.9412L2.30655 11.7833C3.39574 11.6343 4.43008 11.2161 5.31509 10.5669C5.53091 10.4897 5.72454 10.3612 5.8792 10.1926C6.12331 9.86871 6.25526 9.47471 6.25526 9.06979C6.30288 8.6657 6.30288 8.25748 6.25526 7.85339L5.97321 8.13409C4.87667 8.18285 3.80993 8.50456 2.87064 9.06979C2.31758 9.44705 1.83944 9.92291 1.46038 10.4733ZM17.7253 10.7541C16.3527 10.8851 15.657 11.409 15.657 12.3447C15.657 13.2805 15.657 13.505 15.845 13.5612H16.2211H19.6057C19.8601 13.5145 20.1113 13.452 20.3578 13.374C20.6702 13.0756 20.8694 12.6789 20.9219 12.2512V11.8769C20.6068 11.3619 20.0999 10.9919 19.5117 10.8476C18.9451 10.6114 18.3137 10.5784 17.7253 10.7541ZM28.0672 23.8539L26.1869 23.1989C24.966 22.8465 23.6967 22.6886 22.4262 22.7311V24.3217H22.6142C23.3905 25.1008 24.4283 25.5672 25.5288 25.6317C26.0624 25.706 26.6062 25.6211 27.0915 25.388C27.5768 25.1548 27.9817 24.7838 28.2553 24.3217L28.0672 23.8539ZM48.0929 7.01125C48.2808 7.20563 48.4391 7.42629 48.563 7.66624C49.051 7.80856 49.559 7.87176 50.0672 7.85339C50.5713 7.89475 51.0769 7.79377 51.5259 7.56205C51.9749 7.33033 52.3492 6.97726 52.6057 6.5434C52.6057 6.5434 52.6057 6.30012 52.6997 5.98198L52.2296 4.85913C51.578 4.8906 50.9391 5.04958 50.3493 5.32698C50.2585 5.29242 50.158 5.29242 50.0672 5.32698C49.3099 5.72213 48.6389 6.26279 48.0929 6.91769V7.01125ZM35.8706 13.374C35.722 13.667 35.6266 13.9837 35.5886 14.3097C35.9716 14.7146 36.4597 15.006 36.9988 15.1519C37.2938 15.0497 37.5505 14.8607 37.7352 14.6101C37.9199 14.3595 38.0237 14.059 38.033 13.7483C37.9861 13.4607 37.8666 13.1896 37.6858 12.9605C37.5049 12.7314 37.2685 12.5517 36.9988 12.4383C36.7591 12.4848 36.533 12.5847 36.3376 12.7305C36.1422 12.8764 35.9826 13.0644 35.8706 13.2805V13.374Z" fill="#FFCC00"/>
<path fill-rule="evenodd" clip-rule="evenodd" d="M0.614197 12.4382L2.30651 12.8124C3.64794 12.9085 4.99448 12.7171 6.25522 12.251H6.63128C6.89162 11.9775 7.09272 11.6536 7.2221 11.2995C7.35149 10.9454 7.40639 10.5686 7.38342 10.1925C7.38342 8.07779 6.19881 7.23565 3.81077 7.66607C1.42274 8.0965 0.050087 9.20064 0.050087 11.1282C-0.0165596 11.5309 -0.0165596 11.9418 0.050087 12.3446C0.181713 12.3446 0.238132 12.4756 0.238132 12.5317L0.614197 12.4382ZM1.46035 10.4732C1.81147 9.93095 2.25725 9.45561 2.77659 9.06963C3.71588 8.5044 4.78262 8.18268 5.87916 8.13392L6.1612 7.85322C6.20882 8.25731 6.20882 8.66554 6.1612 9.06963C6.1612 9.47454 6.02925 9.86855 5.78514 10.1925C5.63048 10.361 5.43684 10.4895 5.22103 10.5668C4.33601 11.216 3.30168 11.6342 2.21248 11.7832L0.990257 10.941C1.16184 10.8006 1.31927 10.6439 1.46035 10.4732ZM21.768 26.9415C22.8883 27.6549 24.1995 28.0138 25.5287 27.9708C26.1076 27.9449 26.6745 27.7982 27.1928 27.5403C27.7111 27.2824 28.1691 26.919 28.5373 26.4737C28.6884 26.305 28.815 26.116 28.9133 25.9123C29.5651 25.2296 29.9344 24.3275 29.9475 23.3859C29.9475 20.7659 28.1988 19.6431 24.6826 19.9238C21.1663 20.2045 19.6056 21.4583 19.6056 23.1987L20.5458 25.3509C20.8005 25.9817 21.223 26.5316 21.768 26.9415ZM28.0672 23.8537L28.2552 24.3216C27.9817 24.7836 27.5767 25.1547 27.0915 25.3878C26.6062 25.621 26.0624 25.7058 25.5287 25.6316C24.4283 25.5671 23.3904 25.1006 22.6142 24.3216H22.4262V22.7309C23.6967 22.6885 24.9659 22.8464 26.1868 23.1987L28.0672 23.8537ZM34.2723 15.3388C34.5082 15.5735 34.7594 15.7923 35.0245 15.9938C36.7642 16.1737 38.5151 15.7791 40.0074 14.871C40.2506 14.7446 40.4565 14.5573 40.6049 14.3276C40.7533 14.0979 40.8389 13.8337 40.8535 13.561C40.8535 11.8767 39.5937 11.0346 37.0928 11.0346C34.592 11.0346 33.2381 12.0639 33.2381 13.9353C33.2381 14.1786 33.5766 14.6464 34.2723 15.3388ZM35.8706 13.2803C35.9711 13.0468 36.1257 12.8403 36.3218 12.6776C36.5179 12.515 36.7499 12.4009 36.9988 12.3446C37.2685 12.458 37.5048 12.6377 37.6857 12.8668C37.8666 13.0959 37.9861 13.367 38.033 13.6546C38.0237 13.9652 37.9199 14.2658 37.7352 14.5164C37.5505 14.767 37.2937 14.9559 36.9988 15.0581C36.4596 14.9123 35.9716 14.6208 35.5886 14.216C35.6265 13.89 35.722 13.5732 35.8706 13.2803Z" fill="#FEFFFD"/>
<path fill-rule="evenodd" clip-rule="evenodd" d="M6.25535 12.2511C4.99461 12.7171 3.64807 12.9086 2.30663 12.8125L0.614323 12.4382C0.438068 12.8203 0.342091 13.2343 0.332268 13.6546V15.9003C0.507019 16.4411 0.865074 16.9047 1.34523 17.212C1.82539 17.5192 2.39784 17.6509 2.96475 17.5846C3.63914 17.6386 4.31216 17.4648 4.8751 17.0913C5.43805 16.7178 5.85807 16.1664 6.06731 15.526C6.19894 13.8979 6.25535 12.9996 6.25535 12.8125V12.2511ZM28.8195 25.9123C28.7211 26.116 28.5945 26.305 28.4434 26.4737C28.0752 26.9191 27.6172 27.2824 27.0989 27.5404C26.5806 27.7983 26.0137 27.9449 25.4348 27.9709C24.1056 28.0138 22.7944 27.655 21.6741 26.9416L22.2383 28.813C22.9904 30.6844 24.1186 31.5265 25.3408 31.5265C26.563 31.5265 27.5972 30.7218 28.1613 29.0937C28.5332 28.2369 28.7251 27.3135 28.7254 26.3801L28.8195 25.9123ZM15.0929 14.871C15.3374 16.7424 16.2212 17.5846 17.7254 17.5846C19.2297 17.5846 20.1699 16.6489 20.3579 14.7774C19.3232 15.0976 18.2448 15.2554 17.1613 15.2453C16.4553 15.2868 15.7488 15.1718 15.0929 14.9084V14.871ZM47.5289 9.06966V10.0989C47.9049 11.2218 48.9015 11.7832 50.5374 11.7832C50.9231 11.8024 51.3084 11.7369 51.6658 11.5914C52.0233 11.4459 52.3442 11.2238 52.6058 10.9411C52.8401 10.7263 53.0277 10.4661 53.1571 10.1764C53.2864 9.88676 53.3548 9.57379 53.3579 9.25681V8.60181C51.8785 9.11131 50.3146 9.33367 48.7511 9.25681C48.3353 9.27372 47.9203 9.21015 47.5289 9.06966ZM34.3665 15.3389V17.3974C34.3922 17.725 34.4838 18.0441 34.6359 18.3357C34.788 18.6273 34.9974 18.8856 35.2517 19.0951C35.5061 19.3045 35.8001 19.461 36.1164 19.5552C36.4327 19.6493 36.7648 19.6792 37.093 19.6431C37.5099 19.6069 37.9156 19.4891 38.2867 19.2964C38.6578 19.1037 38.987 18.8399 39.2553 18.5203C39.9187 17.8451 40.2899 16.9382 40.2895 15.9939C40.2825 15.6124 40.2191 15.2341 40.1015 14.871C38.6093 15.7792 36.8584 16.1737 35.1186 15.9939C34.8212 15.7958 34.5385 15.577 34.2724 15.3389H34.3665Z" fill="#3C942D"/>
<path fill-rule="evenodd" clip-rule="evenodd" d="M17.7256 10.7541C18.295 10.6296 18.8898 10.6953 19.4179 10.9412C20.0061 11.0855 20.5131 11.4555 20.8282 11.9705V12.3448C20.7756 12.7725 20.5764 13.1691 20.2641 13.4676C20.0175 13.5456 19.7663 13.6081 19.5119 13.6547H16.1273H15.7512C15.6196 13.6547 15.5632 13.1869 15.5632 12.4383C15.5632 11.6898 16.3529 10.8851 17.7256 10.7541ZM15.0931 14.8712C15.7461 15.1473 16.4527 15.2751 17.1615 15.2454C18.245 15.2556 19.3234 15.0977 20.3581 14.7776C20.8171 14.6854 21.2604 14.5279 21.6743 14.3097C23.047 13.7483 23.7427 13.0372 23.7427 12.1576C23.2301 11.0213 22.5311 9.97777 21.6743 9.0698C19.5415 8.8686 17.3943 9.25716 15.4692 10.1927C14.0213 10.9974 13.3068 11.7459 13.3068 12.4383L13.6829 13.9355C13.8043 14.2117 14.0005 14.449 14.2495 14.6208C14.4985 14.7927 14.7906 14.8923 15.0931 14.9086V14.8712ZM47.529 9.0698C47.9204 9.2103 48.3355 9.27386 48.7512 9.25695C50.3148 9.33381 51.8787 9.11145 53.3581 8.60195C53.7306 8.44258 54.051 8.18306 54.2835 7.8525C54.516 7.52193 54.6514 7.1334 54.6743 6.73054C54.6743 6.21903 54.0475 5.47047 52.794 4.48486H47.623C47.2204 4.56759 46.8374 4.72641 46.4948 4.95271C46.2504 5.13985 46.1188 5.64514 46.1188 6.44984C46.0394 6.97942 46.1338 7.52036 46.3878 7.99233C46.6419 8.46431 47.0421 8.84216 47.529 9.0698ZM48.0931 6.91769C48.6115 6.27228 49.2499 5.73221 49.9735 5.32699C50.0643 5.29243 50.1647 5.29243 50.2555 5.32699C50.8453 5.04959 51.4843 4.89061 52.1359 4.85914L52.6059 5.98199C52.6059 6.30013 52.5119 6.48726 52.5119 6.54341C52.2554 6.97727 51.8812 7.33034 51.4322 7.56206C50.9831 7.79378 50.4775 7.89476 49.9735 7.8534C49.4652 7.87177 48.9573 7.80857 48.4692 7.66625C48.3827 7.39921 48.2559 7.14682 48.0931 6.91769Z" fill="#FE5DA3"/>
</svg>
