<svg width="50" height="50" viewBox="0 0 50 50" fill="none" xmlns="http://www.w3.org/2000/svg">
<g clip-path="url(#clip0_1_1728)">
<path d="M29.7808 49.6549L32.07 49.3519L26.4859 15.837C26.4167 15.5106 26.2334 15.2196 25.9688 15.0163C25.7042 14.813 25.3758 14.7109 25.0426 14.7281C24.7096 14.7148 24.3829 14.8209 24.1213 15.0273C23.8597 15.2338 23.6805 15.5269 23.616 15.8538L18.6274 49.3583L20.9229 49.6318L21.7245 44.2455H28.8782L29.7808 49.6549ZM25.0994 21.5641L27.4811 35.8546H22.9722L25.0994 21.5641ZM22.0317 42.1835L22.6629 37.9292H27.8262L28.5353 42.1835H22.0317Z" fill="#B56C00" stroke="black" stroke-width="0.631207" stroke-miterlimit="10"/>
<path d="M24.4029 19.9798V33.6559L29.0318 32.3935L26.7174 23.3462H25.6654V19.9798H24.4029Z" fill="#52D5CD" stroke="black" stroke-width="0.631207" stroke-miterlimit="10"/>
<path d="M25.6653 14.0885V0.412354L21.0365 1.67477L23.3509 10.7221H24.4029V14.0885H25.6653Z" fill="#52D5CD" stroke="black" stroke-width="0.631207" stroke-miterlimit="10"/>
<path d="M22.0885 16.4029H8.41238L9.6748 21.0318L18.7221 18.7173V17.6653H22.0885V16.4029Z" fill="#52D5CD" stroke="black" stroke-width="0.631207" stroke-miterlimit="10"/>
<path d="M27.9798 17.6653H41.6559L40.3935 13.0365L31.3462 15.3509V16.4029H27.9798V17.6653Z" fill="#52D5CD" stroke="black" stroke-width="0.631207" stroke-miterlimit="10"/>
<path d="M22.8481 14.9638L11.1665 7.85217L9.83681 12.4621L18.7684 15.1889L19.3154 14.2905L22.1916 16.0431L22.8481 14.9638Z" fill="#52D5CD" stroke="black" stroke-width="0.631207" stroke-miterlimit="10"/>
<path d="M27.2223 19.1066L38.9039 26.2182L40.2336 21.6083L31.302 18.8794L30.755 19.7778L27.8788 18.0273L27.2223 19.1066Z" fill="#52D5CD" stroke="black" stroke-width="0.631207" stroke-miterlimit="10"/>
<path d="M24.2367 14.1096L17.5607 2.17343L14.1353 5.53566L20.5736 12.3022L21.491 11.7888L23.1342 14.726L24.2367 14.1096Z" fill="#52D5CD" stroke="black" stroke-width="0.631207" stroke-miterlimit="10"/>
<path d="M26.0104 19.8682L32.6865 31.8044L36.1097 28.4421L29.6735 21.6756L28.7541 22.189L27.1108 19.2518L26.0104 19.8682Z" fill="#52D5CD" stroke="black" stroke-width="0.631207" stroke-miterlimit="10"/>
<path d="M27.1466 14.8018L34.2603 3.12024L29.6504 1.7905L26.9215 10.7221L27.8199 11.2691L26.0693 14.1453L27.1466 14.8018Z" fill="#52D5CD" stroke="black" stroke-width="0.631207" stroke-miterlimit="10"/>
<path d="M23.0059 19.176L15.8922 30.8576L20.5021 32.1873L23.231 23.2557L22.3326 22.7087L24.0831 19.8325L23.0059 19.176Z" fill="#52D5CD" stroke="black" stroke-width="0.631207" stroke-miterlimit="10"/>
<path d="M28.0008 16.1904L39.937 9.51437L36.5768 6.08902L29.8103 12.5252L30.3237 13.4447L27.3865 15.0879L28.0008 16.1904Z" fill="#52D5CD" stroke="black" stroke-width="0.631207" stroke-miterlimit="10"/>
<path d="M22.2442 17.9641L10.3081 24.6402L13.6703 28.0634L20.4348 21.6272L19.9214 20.7078L22.8607 19.0645L22.2442 17.9641Z" fill="#52D5CD" stroke="black" stroke-width="0.631207" stroke-miterlimit="10"/>
<path d="M25.2445 21.0318C27.4524 21.0318 29.2422 19.242 29.2422 17.0341C29.2422 14.8263 27.4524 13.0365 25.2445 13.0365C23.0367 13.0365 21.2469 14.8263 21.2469 17.0341C21.2469 19.242 23.0367 21.0318 25.2445 21.0318Z" fill="white" stroke="black" stroke-width="0.631207" stroke-miterlimit="10"/>
<path d="M25.2445 18.9278C26.2904 18.9278 27.1382 18.08 27.1382 17.0342C27.1382 15.9883 26.2904 15.1405 25.2445 15.1405C24.1987 15.1405 23.3509 15.9883 23.3509 17.0342C23.3509 18.08 24.1987 18.9278 25.2445 18.9278Z" fill="#B56C00" stroke="black" stroke-width="0.631207" stroke-miterlimit="10"/>
</g>
<defs>
<clipPath id="clip0_1_1728">
<rect width="34.0704" height="50" fill="white" transform="translate(8)"/>
</clipPath>
</defs>
</svg>
