<svg width="50" height="50" viewBox="0 0 50 50" fill="none" xmlns="http://www.w3.org/2000/svg">
<g clip-path="url(#clip0_1_1645)">
<path d="M8.79582 11.7638C8.79582 11.7638 9.23885 7.85223 12.4286 6.87435C15.6184 5.89646 17.2133 5.09637 18.0107 4.38517C18.8081 3.67398 20.1372 1.9849 24.0358 2.6072C27.9344 3.22949 28.7319 4.38517 30.5926 4.20738C32.4532 4.02958 35.2886 5.45196 36.1746 6.78545C37.0607 8.11893 39.5416 8.47453 40.6049 9.45242C41.6681 10.4303 41.4909 12.2972 41.4909 12.2972L27.3142 16.4754C27.3142 16.4754 8.53001 14.253 8.79582 14.253C9.06164 14.253 8.79582 11.7638 8.79582 11.7638Z" fill="#604F40"/>
<path d="M9.23884 11.7638C9.22733 11.8669 9.22998 11.8144 9.24948 11.7042C9.27517 11.562 9.30264 11.4215 9.33808 11.2819C9.43969 10.8377 9.58268 10.4041 9.76516 9.98668C10.3048 8.77321 11.2085 7.74376 12.4933 7.31972C14.0882 6.79432 15.7088 6.31071 17.1805 5.49106C17.9398 5.0679 18.4909 4.4705 19.1661 3.94244C20.1966 3.13613 21.4698 2.87566 22.7617 2.92188C24.5001 2.985 26.2173 3.48372 27.8414 4.08913C28.3198 4.26692 28.8001 4.45984 29.3016 4.56651C29.8509 4.68297 30.3595 4.63763 30.9133 4.63585C32.4692 4.62963 34.2298 5.44395 35.3506 6.50273C35.6164 6.75698 35.8052 7.05924 36.047 7.33483C36.3141 7.62354 36.6233 7.86993 36.9641 8.06558C37.7234 8.5243 38.5714 8.80433 39.3671 9.19015C40.1069 9.54574 40.6633 9.98491 40.9026 10.8072C41.0425 11.2893 41.0924 11.7933 41.0497 12.2936L41.3748 11.8642L35.5517 13.5809L27.7395 15.8834C27.5623 15.9358 27.3851 15.998 27.2008 16.0425C27.3496 16.006 27.3222 16.0425 27.2265 16.0167C27.1363 15.9999 27.0451 15.989 26.9536 15.9838L24.2697 15.6664C21.2489 15.3108 18.229 14.9514 15.2099 14.5881C13.8513 14.4257 12.4903 14.2621 11.127 14.0974L9.72528 13.9258L9.23441 13.8645L9.06429 13.8431C8.95354 13.8289 8.9367 13.8689 9.02797 13.8431C8.88265 13.892 8.84012 13.6173 9.1086 13.9391L8.91278 14.6823C8.64165 14.7454 8.89949 14.6974 8.93316 14.6779C9.02705 14.6404 9.11126 14.582 9.17948 14.5072C9.24477 14.4219 9.28991 14.3228 9.3115 14.2174C9.3815 13.9276 9.36289 13.6058 9.35315 13.3097C9.3372 12.7941 9.29555 12.2776 9.24062 11.7647C9.18125 11.201 8.29432 11.1948 8.35457 11.7647C8.39533 12.1493 8.42693 12.5345 8.44938 12.9204C8.46533 13.1942 8.47862 13.4689 8.47153 13.7427C8.46238 13.8212 8.45764 13.9001 8.45735 13.9791C8.49102 14.068 8.40153 14.004 8.46355 13.9925C8.46355 13.9925 9.04037 13.7391 8.67709 13.8236C8.3271 13.9054 8.28103 14.325 8.48128 14.5659C8.61773 14.7294 8.9243 14.717 9.11214 14.7437C9.4577 14.7881 9.80326 14.8326 10.1488 14.8726C11.3627 15.0207 12.5769 15.1674 13.7913 15.3126C16.909 15.683 20.0247 16.0537 23.1382 16.4247L26.4343 16.815C26.7967 16.8586 27.1848 16.9653 27.5419 16.871C29.8704 16.2603 32.1697 15.5073 34.4779 14.8263C36.8117 14.1383 39.1597 13.4929 41.4776 12.7621C41.5202 12.7488 41.5662 12.7372 41.6052 12.7248C41.6973 12.6965 41.7782 12.6399 41.8366 12.5631C41.8949 12.4862 41.9277 12.3929 41.9304 12.2963C42.0385 11.0908 41.6726 9.70399 40.6846 8.94834C39.484 8.02824 37.6827 7.89045 36.6717 6.71165C36.4582 6.46184 36.2872 6.18714 36.0515 5.95334C35.7518 5.66216 35.4255 5.39993 35.0768 5.17014C34.3169 4.66265 33.485 4.27304 32.6092 4.01445C31.8224 3.78331 31.0914 3.76642 30.2824 3.77976C29.788 3.77505 29.2981 3.68421 28.8346 3.51128C25.9107 2.51828 22.3878 1.13324 19.4151 2.72364C18.6176 3.14858 18.0736 3.84021 17.3471 4.34516C16.0649 5.23414 14.5064 5.74265 13.0364 6.21737C12.1158 6.51429 11.2768 6.79254 10.528 7.43084C9.95479 7.93412 9.48523 8.54507 9.14581 9.22927C8.73513 10.0208 8.46669 10.8788 8.3528 11.7638C8.28723 12.331 9.17328 12.3256 9.23884 11.7638Z" fill="black"/>
<path d="M12.9602 10.4747C13.1804 10.4747 13.359 10.2956 13.359 10.0747C13.359 9.85376 13.1804 9.67465 12.9602 9.67465C12.74 9.67465 12.5615 9.85376 12.5615 10.0747C12.5615 10.2956 12.74 10.4747 12.9602 10.4747Z" fill="black"/>
<path d="M14.0235 11.2748C14.2437 11.2748 14.4222 11.0957 14.4222 10.8748C14.4222 10.6538 14.2437 10.4747 14.0235 10.4747C13.8033 10.4747 13.6248 10.6538 13.6248 10.8748C13.6248 11.0957 13.8033 11.2748 14.0235 11.2748Z" fill="black"/>
<path d="M14.9095 10.2969C15.1297 10.2969 15.3083 10.1178 15.3083 9.8969C15.3083 9.67596 15.1297 9.49686 14.9095 9.49686C14.6893 9.49686 14.5108 9.67596 14.5108 9.8969C14.5108 10.1178 14.6893 10.2969 14.9095 10.2969Z" fill="black"/>
<path d="M15.9728 9.14125C16.193 9.14125 16.3715 8.96214 16.3715 8.7412C16.3715 8.52026 16.193 8.34116 15.9728 8.34116C15.7526 8.34116 15.5741 8.52026 15.5741 8.7412C15.5741 8.96214 15.7526 9.14125 15.9728 9.14125Z" fill="black"/>
<path d="M16.5044 11.3637C16.7246 11.3637 16.9031 11.1846 16.9031 10.9637C16.9031 10.7427 16.7246 10.5636 16.5044 10.5636C16.2842 10.5636 16.1057 10.7427 16.1057 10.9637C16.1057 11.1846 16.2842 11.3637 16.5044 11.3637Z" fill="black"/>
<path d="M8.70721 20.7426C8.70721 20.7426 5.78326 34.2552 6.84652 43.5896C6.84652 43.5896 4.45419 46.0788 5.96047 46.4344C7.46675 46.79 8.35279 45.9899 11.0109 46.79C13.6691 47.5901 23.5042 49.2791 30.0609 48.2124C36.6177 47.1456 42.1111 46.2566 44.0604 46.5233C46.0097 46.79 45.8325 45.4565 44.9465 44.3897C44.0604 43.3229 44.4149 41.8116 44.5035 39.1447C44.5921 36.4777 44.149 22.965 42.5542 20.2981C40.9593 17.6311 8.70721 20.7426 8.70721 20.7426Z" fill="#AA5D3F"/>
<path d="M8.27837 20.6243C7.111 25.9917 6.41867 31.4521 6.20945 36.9417C6.1306 39.158 6.15718 41.3867 6.4035 43.5896L6.53375 43.2749C5.88073 43.9576 4.14142 45.9419 5.50948 46.7322C6.2954 47.1856 7.39675 46.9242 8.24647 46.8771C9.37352 46.814 10.3916 47.1011 11.4699 47.3767C13.4493 47.8834 15.4846 48.1955 17.5083 48.4586C20.2072 48.8142 22.9345 49.0267 25.6599 48.9973C28.6778 48.9644 31.6133 48.399 34.586 47.9305C37.1892 47.5216 39.8136 47.0682 42.4523 46.9384C42.8439 46.9189 43.2364 46.9082 43.6281 46.9278C44.0932 46.9509 44.5504 47.0487 45.0156 46.9526C46.0452 46.7411 46.1932 45.7418 45.8051 44.9026C45.6031 44.4644 45.2362 44.1372 45.036 43.7034C44.8437 43.2882 44.8109 42.8144 44.8047 42.3655C44.7879 41.192 44.9359 40.0203 44.9554 38.8477C45.0147 35.2153 44.7879 31.5491 44.4583 27.9345C44.2811 26.0223 44.0826 24.0932 43.6662 22.2165C43.4748 21.356 43.2781 20.0883 42.4337 19.6127C41.7044 19.2028 40.7865 19.1086 39.974 19.0108C38.6659 18.8677 37.3513 18.7921 36.0355 18.7841C32.5188 18.7219 28.9977 18.8659 25.4863 19.0508C21.9899 19.2331 18.4963 19.4758 15.0061 19.7531C13.0019 19.9131 10.9982 20.0856 8.99518 20.2705L8.70722 20.2981C8.14458 20.3523 8.13926 21.2413 8.70722 21.1871C10.5466 21.0093 12.3879 20.8546 14.2291 20.7052C18.2021 20.3825 22.1804 20.1043 26.1623 19.9051C30.0609 19.7104 33.995 19.5389 37.9015 19.7344C39.1216 19.7949 40.2885 19.8473 41.4457 20.1789C41.5343 20.2047 41.6274 20.2349 41.7177 20.2678C41.7558 20.2803 41.7939 20.2954 41.832 20.3105C41.8701 20.3256 41.7753 20.2794 41.8825 20.3336C41.949 20.3674 42.0137 20.4039 42.0792 20.4421C42.1758 20.4981 42.0473 20.3932 42.1537 20.5034C42.2201 20.5728 42.1652 20.5132 42.1537 20.4901C42.1774 20.5249 42.199 20.5611 42.2184 20.5985C42.2759 20.7123 42.3397 20.843 42.3725 20.923C42.5048 21.2641 42.614 21.6136 42.6995 21.9694C43.2382 24.0834 43.4367 26.2943 43.6219 28.459C43.8265 30.8424 43.955 33.2338 44.0285 35.6243C44.0888 37.6014 44.0348 39.5358 43.9399 41.5147C43.9107 42.129 43.8974 42.7495 44.0099 43.3567C44.1118 43.9087 44.3644 44.3346 44.6949 44.7791C44.8721 45.0102 45.3443 45.6636 45.0909 45.9739C44.8375 46.2841 44.0782 46.0717 43.7237 46.0494C42.6694 45.981 41.5972 46.1001 40.549 46.213C38.9639 46.3846 37.385 46.6139 35.8096 46.8531C32.3664 47.3758 28.9569 48.0914 25.4632 48.1137C22.3692 48.1323 19.2671 47.8514 16.2094 47.39C15.0238 47.2122 13.841 47.0051 12.6652 46.7491C11.578 46.5117 10.5148 46.1268 9.40542 46.0148C8.78519 45.9508 8.17204 45.9925 7.5527 46.0477C7.10968 46.0877 6.42388 46.205 6.00478 45.989C5.89579 45.933 5.91086 45.9676 5.90643 45.8574C5.89934 45.6876 6.00832 45.4903 6.08363 45.3445C6.29528 44.9584 6.54843 44.5968 6.83855 44.2661C7.05917 44.0065 7.29309 43.8412 7.27537 43.4731C7.23992 42.7308 7.1398 41.9894 7.10525 41.2462C7.03259 39.7029 7.04499 38.157 7.10525 36.6146C7.30904 31.614 7.99129 26.6179 8.95885 21.7116C9.01467 21.4289 9.07138 21.1462 9.13163 20.8644C9.25302 20.3025 8.40064 20.0643 8.27837 20.6243Z" fill="black"/>
<path d="M18.6309 19.2313C18.6309 19.2313 12.0742 19.0535 8.61861 16.9199C5.16303 14.7863 8.26419 11.586 10.2135 12.3861C12.1628 13.1862 21.4663 15.1419 28.9091 14.3418C36.3518 13.5418 41.4404 11.4464 42.9086 12.9195C44.149 14.1641 47.516 19.2313 32.5418 18.8757" fill="#C8784D"/>
<path d="M18.6309 18.7868C16.8849 18.7313 15.1469 18.5231 13.4369 18.1645C12.1079 17.8898 10.7637 17.5307 9.54276 16.9244C8.53533 16.4239 7.17879 15.5331 7.57574 14.2103C7.83535 13.3435 8.83392 12.579 9.75896 12.7159C10.0797 12.7639 10.3978 12.9319 10.707 13.0288C11.1252 13.1595 11.5488 13.2715 11.9741 13.3773C14.6987 14.0529 17.4977 14.4717 20.2896 14.7348C23.8249 15.0673 27.3328 15.0353 30.8513 14.5437C32.5791 14.3027 34.2945 13.9836 36.0063 13.6458C37.2981 13.3915 38.5918 13.1053 39.8987 12.9426C40.6385 12.8537 41.6158 12.7186 42.2866 13.0262C42.4593 13.1045 42.6111 13.2227 42.7296 13.3711C42.7748 13.4209 42.8182 13.4724 42.8625 13.524C42.8873 13.5524 42.9113 13.5827 42.9352 13.6129C43.0078 13.7018 42.9467 13.6253 42.9635 13.6493C43.1749 13.9278 43.3534 14.23 43.4952 14.5499C43.4615 14.4708 43.535 14.653 43.5563 14.7197C43.5882 14.8132 43.6149 14.9085 43.636 15.005C43.6804 15.1527 43.6954 15.3076 43.6803 15.4611C43.6803 15.5082 43.6803 15.5553 43.6724 15.6033C43.6644 15.7109 43.6901 15.5304 43.6644 15.6585C43.6456 15.7547 43.6211 15.8497 43.5908 15.9429C43.5696 16.0123 43.5536 16.0416 43.5678 16.0096C43.5465 16.0567 43.5235 16.1047 43.4978 16.1501C43.4453 16.2466 43.3861 16.3393 43.3206 16.4274C43.3507 16.3874 43.1735 16.5874 43.1221 16.6372C43.0416 16.7152 42.9567 16.7885 42.8678 16.8568C42.6067 17.0463 42.3271 17.2087 42.0332 17.3413C39.9953 18.2854 37.5188 18.3752 35.3205 18.433C34.3955 18.457 33.4704 18.4525 32.5454 18.433C31.9748 18.4197 31.9757 19.3086 32.5454 19.322C35.464 19.3869 38.5918 19.4064 41.4059 18.5219C42.6189 18.1414 44.0082 17.4827 44.4441 16.1803C44.7294 15.3269 44.4716 14.4023 44.0294 13.6538C43.8394 13.3328 43.617 13.0322 43.3658 12.7568C42.9148 12.259 42.3362 12.0509 41.6823 11.9851C40.5978 11.8758 39.4734 12.0909 38.4084 12.2785C36.8232 12.5585 35.2478 12.9008 33.6636 13.1888C31.7205 13.5444 29.7597 13.8547 27.7882 13.9889C25.9333 14.1098 24.0725 14.1098 22.2176 13.9889C19.023 13.8066 15.8491 13.357 12.729 12.6448C11.8872 12.4492 11.0756 12.2003 10.2578 11.9336C9.20872 11.578 8.02408 12.0927 7.32587 12.8981C6.52843 13.8209 6.38312 15.1135 7.09816 16.1332C7.9399 17.3351 9.48428 17.9503 10.8249 18.3974C13.172 19.1797 15.6901 19.5211 18.1534 19.658C18.3128 19.6669 18.4714 19.6758 18.6309 19.6802C19.2015 19.6962 19.2007 18.8073 18.6309 18.7913V18.7868Z" fill="black"/>
<path d="M30.947 18.6979C30.947 18.6979 41.4909 16.7421 43.5288 18.0756C44.0037 18.3859 44.5921 20.9204 42.9086 21.4538C41.2251 21.9871 33.4279 23.9429 23.8586 23.4095C14.2893 22.8761 9.23884 21.8094 8.35279 21.4538C7.46675 21.0982 6.74196 19.4233 7.64396 17.9867C9.15024 15.5864 18.0993 18.609 18.0993 18.609" fill="#C8784D"/>
<path d="M31.0648 19.1264C32.3008 18.897 33.5457 18.7077 34.7915 18.5388C36.942 18.2472 39.1402 17.9805 41.3137 18.0667C41.9109 18.0907 42.82 18.1103 43.271 18.4374C43.3179 18.4712 43.271 18.4223 43.2984 18.4685C43.3356 18.5251 43.3682 18.5845 43.3959 18.6463C43.4816 18.8541 43.5383 19.0728 43.5643 19.2962C43.6227 19.7407 43.5953 20.2856 43.3117 20.659C42.9423 21.1471 42.0287 21.2466 41.4705 21.3862C40.4782 21.6351 39.476 21.8449 38.4695 22.0298C35.3449 22.6022 32.1815 22.935 29.0065 23.0255C25.1859 23.1393 21.3582 22.8584 17.557 22.485C15.186 22.2521 12.8123 21.9685 10.4687 21.5142C9.91046 21.4058 9.3496 21.2929 8.80291 21.1328C7.89205 20.8661 7.50839 19.8163 7.72813 18.8997C7.94787 17.9832 8.5938 17.6551 9.48871 17.5475C10.4802 17.4249 11.5107 17.5315 12.4924 17.6827C14.2508 17.9657 15.9847 18.3851 17.6784 18.937C17.7786 18.969 17.8787 19.001 17.9779 19.0348C18.5202 19.2126 18.7523 18.3592 18.2136 18.177C16.7921 17.7019 15.342 17.318 13.872 17.0275C12.7325 16.7999 11.5683 16.6177 10.4004 16.6132C9.52592 16.6132 8.52292 16.6861 7.78661 17.2115C6.6569 18.0178 6.53197 19.8002 7.19296 20.9373C7.5908 21.6218 8.18179 21.8965 8.89949 22.0787C10.8001 22.5623 12.7697 22.8166 14.7128 23.0566C18.4732 23.5251 22.2832 23.862 26.0728 23.9305C29.7502 23.992 33.4261 23.7362 37.0598 23.166C39.0321 22.8593 41.0638 22.5197 42.9679 21.8974C44.157 21.5089 44.593 20.3763 44.4432 19.1975C44.3865 18.753 44.2731 18.2694 43.9931 17.9111C43.7796 17.6382 43.4411 17.5075 43.1177 17.4124C42.2263 17.1511 41.2437 17.1502 40.324 17.1635C39.1349 17.1804 37.9476 17.28 36.7656 17.4062C34.889 17.6071 33.0168 17.8791 31.1578 18.2063L30.8344 18.2641C30.2745 18.3681 30.5119 19.2251 31.0701 19.1219L31.0648 19.1264Z" fill="black"/>
<path d="M25.6307 44.2119C30.4753 44.2119 34.4025 40.2716 34.4025 35.4109C34.4025 30.5502 30.4753 26.6099 25.6307 26.6099C20.7861 26.6099 16.8588 30.5502 16.8588 35.4109C16.8588 40.2716 20.7861 44.2119 25.6307 44.2119Z" fill="#C6AFAC"/>
<path d="M34.8456 35.4109C34.819 31.5305 32.3708 28.0163 28.723 26.6988C25.1088 25.3947 20.909 26.569 18.4936 29.5649C16.0782 32.5608 15.7371 36.8929 17.7537 40.2106C19.7606 43.5114 23.6814 45.22 27.4577 44.4724C31.7267 43.627 34.8119 39.7438 34.8456 35.41C34.85 34.8375 33.964 34.8366 33.9595 35.41C33.9356 38.8771 31.7604 42.0774 28.4873 43.2634C26.8645 43.843 25.1035 43.9095 23.4418 43.4541C21.7801 42.9987 20.2974 42.0433 19.1936 40.7164C16.9554 38.013 16.7011 34.049 18.5193 31.0575C20.3206 28.0936 23.8843 26.5192 27.2805 27.2162C31.141 28.0092 33.9321 31.4691 33.9595 35.41C33.964 35.9825 34.85 35.9834 34.8456 35.4109Z" fill="black"/>
<path d="M25.4535 29.2324C25.4535 29.2324 23.8586 30.5659 24.0358 32.255C24.213 33.9441 25.5421 34.8331 25.5421 34.8331C25.5421 34.8331 26.9598 33.4107 26.9598 32.255C26.9598 31.0993 25.4535 29.2324 25.4535 29.2324Z" fill="#95D82B"/>
<path d="M25.2187 28.996C24.3371 29.7427 23.6335 30.9517 23.6938 32.1288C23.7347 32.7217 23.9071 33.298 24.1984 33.8155C24.4896 34.333 24.8924 34.7788 25.3773 35.1202C25.4407 35.1571 25.5144 35.172 25.5871 35.1627C25.6598 35.1534 25.7274 35.1203 25.7795 35.0687C26.5531 34.2863 27.4453 33.1129 27.2663 31.9474C27.0998 30.8655 26.3617 29.8325 25.6909 28.996C25.4251 28.6626 24.9555 29.1364 25.2213 29.468C25.768 30.149 26.3953 31.0486 26.5912 31.9403C26.8047 32.912 25.9497 33.9494 25.3099 34.5966L25.7122 34.545C24.9467 34.0241 24.3628 32.9617 24.3574 32.0043C24.3521 31.0469 24.9697 30.0788 25.6909 29.468C26.0161 29.1907 25.5439 28.7213 25.2187 28.996Z" fill="black"/>
<path d="M30.7166 34.2036C30.7166 34.2036 28.6486 34.0152 27.5835 35.3371C26.5185 36.659 26.8322 38.229 26.8322 38.229C26.8322 38.229 28.8373 38.229 29.6516 37.412C30.4658 36.595 30.7166 34.2036 30.7166 34.2036Z" fill="#95D82B"/>
<path d="M30.7166 33.8703C29.6693 33.7814 28.482 34.0712 27.6775 34.7593C26.7143 35.5878 26.2749 37.0707 26.5114 38.3152C26.5314 38.3853 26.5734 38.447 26.6312 38.4911C26.689 38.5352 26.7596 38.5592 26.8322 38.5597C27.9087 38.5553 29.3468 38.3659 30.0485 37.4538C30.7237 36.5746 30.9346 35.2829 31.0489 34.2028C31.0949 33.777 30.4286 33.7805 30.3843 34.2028C30.2869 35.1131 30.1035 36.2101 29.5771 36.9755C29.0305 37.7694 27.7164 37.8894 26.8304 37.893L27.1503 38.1374C26.9562 37.1169 27.3895 35.7852 28.2587 35.1442C28.9348 34.6446 29.8864 34.465 30.7148 34.5361C31.1428 34.5735 31.1384 33.9067 30.7166 33.8703Z" fill="black"/>
<path d="M20.5669 34.6126C20.5669 34.6126 20.3791 36.6875 21.6949 37.756C23.0107 38.8246 24.5816 38.5099 24.5816 38.5099C24.5816 38.5099 24.5816 36.4981 23.7664 35.6811C22.9513 34.8642 20.5669 34.6126 20.5669 34.6126Z" fill="#95D82B"/>
<path d="M20.2347 34.6126C20.1461 35.6634 20.4349 36.8546 21.1207 37.6618C21.9465 38.6282 23.4244 39.0691 24.6649 38.8317C24.7349 38.8119 24.7966 38.7698 24.8407 38.7118C24.8848 38.6537 24.9089 38.5829 24.9094 38.5099C24.9094 37.4298 24.7154 35.987 23.8063 35.2829C22.9309 34.6055 21.6426 34.3939 20.5669 34.2792C20.1425 34.2339 20.1452 34.9015 20.5669 34.946C21.4742 35.0437 22.5676 35.2278 23.3296 35.7558C24.1218 36.3043 24.2414 37.6227 24.2449 38.5117L24.4886 38.1908C23.4714 38.3855 22.1441 37.9507 21.5053 37.0786C21.0073 36.4003 20.8283 35.4456 20.8992 34.6144C20.9355 34.1814 20.271 34.1876 20.2347 34.6126Z" fill="black"/>
<path d="M25.7858 41.6783V32.1661C25.7858 31.7367 25.1212 31.7358 25.1212 32.1661V41.6783C25.1212 42.1068 25.7858 42.1077 25.7858 41.6783Z" fill="black"/>
<path d="M25.4535 39.1971C25.4535 39.1971 26.7826 37.2333 28.1116 36.611L25.4535 39.1971Z" fill="#C6AFAC"/>
<path d="M25.7406 39.3651C26.3874 38.4139 27.2362 37.4093 28.2791 36.8982C28.6636 36.7097 28.3269 36.1345 27.9442 36.323C26.7994 36.8866 25.8761 37.9863 25.1664 39.0291C24.9245 39.3847 25.5004 39.7181 25.7406 39.3651Z" fill="black"/>
<path d="M25.3649 39.1971C25.3649 39.1971 24.0358 37.2333 22.7067 36.611L25.3649 39.1971Z" fill="#C6AFAC"/>
<path d="M25.652 39.0291C24.9431 37.9863 24.019 36.8866 22.8742 36.323C22.4923 36.1345 22.1547 36.7097 22.5393 36.8982C23.5822 37.412 24.431 38.4139 25.0778 39.3651C25.3179 39.7207 25.8938 39.3847 25.652 39.0291Z" fill="black"/>
</g>
<defs>
<clipPath id="clip0_1_1645">
<rect width="41" height="47" fill="white" transform="translate(5 2)"/>
</clipPath>
</defs>
</svg>
