<svg width="50" height="50" viewBox="0 0 50 50" fill="none" xmlns="http://www.w3.org/2000/svg">
<path opacity="0.2" d="M7 32L7 46" stroke="black" stroke-linecap="round"/>
<path opacity="0.2" d="M25 19L25 46" stroke="black" stroke-linecap="round"/>
<path opacity="0.2" d="M43 15L43 46" stroke="black" stroke-linecap="round"/>
<mask id="path-4-outside-1_1_1682" maskUnits="userSpaceOnUse" x="1" y="7" width="47" height="36" fill="black">
<rect fill="white" x="1" y="7" width="47" height="36"/>
<path fill-rule="evenodd" clip-rule="evenodd" d="M37.2941 27.0567C37.2545 27.117 37.2134 27.1761 37.1708 27.2339C35.9729 28.8603 34.0306 28.8603 32.8326 27.2339L29.362 22.5221L20.2516 34.8905L20.2516 34.8905C19.0536 36.5169 17.1113 36.5169 15.9133 34.8905L13.7442 31.9457L7.23676 40.7803C6.03878 42.4067 4.09647 42.4067 2.89849 40.7803C1.7005 39.1539 1.70051 36.5169 2.89849 34.8905L11.575 23.1111C12.174 22.2979 12.9591 21.8913 13.7442 21.8913C14.0996 21.8913 14.455 21.9747 14.7932 22.1413C14.9218 22.2048 15.048 22.2803 15.1708 22.3678C15.4379 22.5584 15.6887 22.8062 15.9133 23.1111L18.0824 26.056L27.1853 13.6979L27.1928 13.6876C28.3908 12.0612 30.3331 12.0612 31.5311 13.6876L31.5311 13.6876L35.0017 18.3994L41.7633 9.2198C42.9612 7.5934 44.9036 7.5934 46.1015 9.2198C47.2995 10.8462 47.2995 13.4831 46.1015 15.1095L37.425 26.8889C37.3823 26.9469 37.3386 27.0028 37.2941 27.0567Z"/>
</mask>
<path fill-rule="evenodd" clip-rule="evenodd" d="M37.2941 27.0567C37.2545 27.117 37.2134 27.1761 37.1708 27.2339C35.9729 28.8603 34.0306 28.8603 32.8326 27.2339L29.362 22.5221L20.2516 34.8905L20.2516 34.8905C19.0536 36.5169 17.1113 36.5169 15.9133 34.8905L13.7442 31.9457L7.23676 40.7803C6.03878 42.4067 4.09647 42.4067 2.89849 40.7803C1.7005 39.1539 1.70051 36.5169 2.89849 34.8905L11.575 23.1111C12.174 22.2979 12.9591 21.8913 13.7442 21.8913C14.0996 21.8913 14.455 21.9747 14.7932 22.1413C14.9218 22.2048 15.048 22.2803 15.1708 22.3678C15.4379 22.5584 15.6887 22.8062 15.9133 23.1111L18.0824 26.056L27.1853 13.6979L27.1928 13.6876C28.3908 12.0612 30.3331 12.0612 31.5311 13.6876L31.5311 13.6876L35.0017 18.3994L41.7633 9.2198C42.9612 7.5934 44.9036 7.5934 46.1015 9.2198C47.2995 10.8462 47.2995 13.4831 46.1015 15.1095L37.425 26.8889C37.3823 26.9469 37.3386 27.0028 37.2941 27.0567Z" fill="#90AD29"/>
<path d="M37.1708 27.2339L37.976 27.827V27.827L37.1708 27.2339ZM37.2941 27.0567L36.5235 26.4193L36.4883 26.4619L36.458 26.508L37.2941 27.0567ZM32.8326 27.2339L33.6377 26.6408L32.8326 27.2339ZM29.362 22.5221L30.1671 21.9291L29.362 20.836L28.5568 21.9291L29.362 22.5221ZM20.2516 34.8905L20.6455 35.8097L20.8955 35.7026L21.0567 35.4836L20.2516 34.8905ZM20.2516 34.8905L19.8577 33.9714L19.6077 34.0785L19.4464 34.2975L20.2516 34.8905ZM15.9133 34.8905L16.7185 34.2975L16.7185 34.2975L15.9133 34.8905ZM13.7442 31.9457L14.5493 31.3526L13.7442 30.2595L12.939 31.3526L13.7442 31.9457ZM7.23676 40.7803L6.4316 40.1872L6.4316 40.1872L7.23676 40.7803ZM2.89849 40.7803L3.70364 40.1872L3.70364 40.1872L2.89849 40.7803ZM2.89849 34.8905L2.09333 34.2975H2.09333L2.89849 34.8905ZM11.575 23.1111L12.3802 23.7042L12.3802 23.7042L11.575 23.1111ZM14.7932 22.1413L15.2353 21.2444L15.2353 21.2444L14.7932 22.1413ZM15.1708 22.3678L15.7515 21.5538L15.7515 21.5538L15.1708 22.3678ZM15.9133 23.1111L16.7185 22.5181H16.7185L15.9133 23.1111ZM18.0824 26.056L17.2773 26.6491L18.0824 27.7422L18.8876 26.6491L18.0824 26.056ZM27.1853 13.6979L27.9904 14.2909L27.9914 14.2896L27.1853 13.6979ZM27.1928 13.6876L26.3877 13.0945L26.3867 13.0958L27.1928 13.6876ZM31.5311 13.6876L32.5294 13.6297L32.5122 13.3334L32.3363 13.0945L31.5311 13.6876ZM31.5311 13.6876L30.5328 13.7455L30.5499 14.0417L30.7259 14.2807L31.5311 13.6876ZM35.0017 18.3994L34.1966 18.9924L35.0017 20.0855L35.8069 18.9924L35.0017 18.3994ZM41.7633 9.2198L42.5684 9.81286L42.5684 9.81286L41.7633 9.2198ZM46.1015 9.2198L46.9067 8.62673L46.9067 8.62673L46.1015 9.2198ZM46.1015 15.1095L45.2964 14.5164V14.5164L46.1015 15.1095ZM37.425 26.8889L36.6198 26.2958L36.6198 26.2959L37.425 26.8889ZM37.976 27.827C38.0295 27.7543 38.0809 27.6804 38.1301 27.6053L36.458 26.508C36.4282 26.5535 36.3974 26.5978 36.3657 26.6408L37.976 27.827ZM32.0274 27.827C32.7825 28.8521 33.848 29.4537 35.0017 29.4537C36.1554 29.4537 37.2209 28.8521 37.976 27.827L36.3657 26.6408C35.9228 27.2421 35.4181 27.4537 35.0017 27.4537C34.5853 27.4537 34.0806 27.2421 33.6377 26.6408L32.0274 27.827ZM28.5568 23.1152L32.0274 27.827L33.6377 26.6408L30.1671 21.9291L28.5568 23.1152ZM21.0567 35.4836L30.1671 23.1152L28.5568 21.9291L19.4464 34.2975L21.0567 35.4836ZM20.6455 35.8097L20.6455 35.8097L19.8577 33.9714L19.8577 33.9714L20.6455 35.8097ZM15.1082 35.4836C15.8633 36.5088 16.9287 37.1103 18.0825 37.1103C19.2362 37.1103 20.3016 36.5088 21.0567 35.4836L19.4464 34.2975C19.0036 34.8987 18.4989 35.1103 18.0824 35.1103C17.666 35.1103 17.1613 34.8987 16.7185 34.2975L15.1082 35.4836ZM12.939 32.5388L15.1082 35.4836L16.7185 34.2975L14.5493 31.3526L12.939 32.5388ZM8.04191 41.3733L14.5493 32.5388L12.939 31.3526L6.4316 40.1872L8.04191 41.3733ZM2.09333 41.3733C2.84845 42.3985 3.91388 43 5.06762 43C6.22136 43 7.2868 42.3985 8.04191 41.3733L6.4316 40.1872C5.98874 40.7884 5.48403 41 5.06762 41C4.65121 41 4.1465 40.7884 3.70364 40.1872L2.09333 41.3733ZM2.09333 34.2975C1.3461 35.3119 1 36.5959 1 37.8354C1 39.0749 1.3461 40.3589 2.09333 41.3733L3.70364 40.1872C3.25289 39.5752 3 38.7275 3 37.8354C3 36.9433 3.25289 36.0956 3.70364 35.4836L2.09333 34.2975ZM10.7699 22.5181L2.09333 34.2975L3.70364 35.4836L12.3802 23.7042L10.7699 22.5181ZM13.7442 20.8913C12.5904 20.8913 11.525 21.4929 10.7699 22.5181L12.3802 23.7042C12.8231 23.103 13.3278 22.8913 13.7442 22.8913V20.8913ZM15.2353 21.2444C14.7646 21.0124 14.2584 20.8913 13.7442 20.8913V22.8913C13.9407 22.8913 14.1454 22.9369 14.3511 23.0383L15.2353 21.2444ZM15.7515 21.5538C15.5862 21.4358 15.4137 21.3323 15.2353 21.2444L14.3511 23.0383C14.4299 23.0772 14.5099 23.1247 14.59 23.1819L15.7515 21.5538ZM16.7185 22.5181C16.4365 22.1352 16.1116 21.8107 15.7515 21.5538L14.59 23.1819C14.7642 23.3062 14.9409 23.4772 15.1082 23.7042L16.7185 22.5181ZM18.8876 25.4629L16.7185 22.5181L15.1082 23.7042L17.2773 26.6491L18.8876 25.4629ZM26.3801 13.1048L17.2773 25.4629L18.8876 26.6491L27.9904 14.2909L26.3801 13.1048ZM26.3867 13.0958L26.3792 13.1061L27.9914 14.2896L27.9989 14.2793L26.3867 13.0958ZM32.3363 13.0945C31.5811 12.0693 30.5157 11.4678 29.362 11.4678C28.2082 11.4678 27.1428 12.0693 26.3877 13.0945L27.998 14.2806C28.4408 13.6794 28.9456 13.4678 29.362 13.4678C29.7784 13.4678 30.2831 13.6794 30.7259 14.2806L32.3363 13.0945ZM32.5294 13.6297L32.5294 13.6297L30.5328 13.7454L30.5328 13.7455L32.5294 13.6297ZM35.8069 17.8063L32.3363 13.0945L30.7259 14.2807L34.1966 18.9924L35.8069 17.8063ZM35.8069 18.9924L42.5684 9.81286L40.9581 8.62673L34.1966 17.8063L35.8069 18.9924ZM42.5684 9.81286C43.0113 9.21162 43.516 9 43.9324 9C44.3488 9 44.8535 9.21162 45.2964 9.81286L46.9067 8.62673C46.1516 7.60157 45.0861 7 43.9324 7C42.7787 7 41.7132 7.60157 40.9581 8.62673L42.5684 9.81286ZM45.2964 9.81286C45.7471 10.4248 46 11.2725 46 12.1647C46 13.0568 45.7471 13.9045 45.2964 14.5164L46.9067 15.7026C47.6539 14.6881 48 13.4042 48 12.1647C48 10.9251 47.6539 9.64119 46.9067 8.62673L45.2964 9.81286ZM45.2964 14.5164L36.6198 26.2958L38.2301 27.482L46.9067 15.7026L45.2964 14.5164ZM36.6198 26.2959C36.588 26.339 36.5559 26.3801 36.5235 26.4193L38.0647 27.694C38.1214 27.6255 38.1765 27.5548 38.2302 27.482L36.6198 26.2959Z" fill="black" mask="url(#path-4-outside-1_1_1682)"/>
<path d="M5 38C5.4 37.6 11.1667 30.5 14 27" stroke="#B1C225" stroke-linecap="round"/>
<path d="M35 23C35.4 22.6 41.1667 15.5 44 12" stroke="#B1C225" stroke-linecap="round"/>
<path d="M17 32C17.5778 31.4182 25.9074 21.0909 30 16" stroke="#B1C225" stroke-linecap="round"/>
</svg>
