<svg width="51" height="50" viewBox="0 0 51 50" fill="none" xmlns="http://www.w3.org/2000/svg">
<mask id="path-1-outside-1_1_1618" maskUnits="userSpaceOnUse" x="0.78299" y="5.78586" width="50" height="39" fill="black">
<rect fill="white" x="0.78299" y="5.78586" width="50" height="39"/>
<path d="M46.8985 18.0855C45.2897 16.2952 43.5369 15.1823 42.701 15.3481C41.8797 15.0783 41.1841 15.1061 40.7535 15.492C40.0592 16.115 40.2213 17.5194 41.0378 19.1064L34.8384 21.291L35.1735 15.1848C35.1735 15.1848 36.0952 10.951 31.951 9.47528C27.8068 7.99952 17.6773 4.77825 15.6499 9.47528L15.2072 10.674L15.1842 10.6184L15.0028 11.1095C14.9943 11.0805 14.987 11.0502 14.9786 11.02L14.9677 10.9789C14.9519 10.9232 14.935 10.8664 14.9181 10.8095C14.9181 10.7986 14.9096 10.7865 14.906 10.7744C14.8903 10.726 14.8745 10.6764 14.8576 10.6269C14.8576 10.6123 14.8467 10.5978 14.8419 10.5833C14.8213 10.5252 14.7995 10.4623 14.7765 10.4079L14.7596 10.3656L14.6955 10.2144L14.6774 10.1744C14.6507 10.1152 14.6229 10.0535 14.5939 9.99784C14.5866 9.98332 14.5782 9.96881 14.5709 9.95308C14.5443 9.90107 14.5165 9.85026 14.4874 9.79825L14.4693 9.76801C14.4354 9.70874 14.4004 9.64704 14.3629 9.59382C14.3544 9.5793 14.3447 9.566 14.335 9.55148C14.3 9.49826 14.2637 9.44504 14.225 9.39302C14.2203 9.38789 14.2162 9.3822 14.2129 9.37609C14.1705 9.32044 14.1258 9.26601 14.081 9.21158L14.0471 9.17287C14 9.11843 13.9516 9.06521 13.8996 9.0144C12.7032 7.81444 10.769 5.79072 7.54533 7.3572C7.48243 7.38744 7.42437 7.42131 7.35421 7.4576L7.30099 7.48784C7.24897 7.51808 7.19696 7.54953 7.14373 7.5834L7.10503 7.6076C7.04092 7.64993 6.9768 7.69348 6.91148 7.73945L6.86673 7.77211L6.71068 7.89307L6.65988 7.93299C6.59456 7.9846 6.52924 8.03903 6.46392 8.09629L6.44819 8.11081C6.38771 8.16403 6.32723 8.21846 6.26796 8.27532L6.21594 8.32491C6.15909 8.37934 6.10224 8.43499 6.04538 8.49305L6.01877 8.51966C5.95345 8.5874 5.88813 8.65635 5.82281 8.72772L5.77926 8.77611C5.72483 8.83538 5.67161 8.89707 5.61838 8.95876L5.57604 9.00836C5.51072 9.08577 5.4454 9.1644 5.38129 9.25028L5.36194 9.27448C5.30388 9.34826 5.24098 9.42447 5.18654 9.50189L5.1442 9.55874C5.0813 9.64342 5.02324 9.7293 4.9555 9.8176C4.89139 9.90954 4.82728 10.0039 4.76317 10.0994L4.72809 10.1527C4.67245 10.2361 4.61801 10.3208 4.56358 10.4079L4.53818 10.449C4.47527 10.5494 4.41721 10.6523 4.35068 10.7575L4.33496 10.7829C4.27931 10.8785 4.22367 10.9764 4.16803 11.0744L4.13779 11.1276C4.01763 11.3381 3.89908 11.5603 3.78215 11.7942L3.75675 11.845C3.70353 11.9562 3.64909 12.0675 3.59708 12.18C3.59473 12.1855 3.59189 12.1908 3.58861 12.1958C3.53176 12.3167 3.47611 12.4377 3.42047 12.5683L3.40958 12.5937C3.35878 12.7147 3.30918 12.8284 3.25959 12.9469C3.25959 12.9602 3.2487 12.9748 3.24265 12.9881C3.13862 13.2429 3.03863 13.5034 2.94266 13.7695C2.94266 13.7852 2.93178 13.7997 2.92694 13.8155C2.83178 14.084 2.74106 14.3574 2.65477 14.6356C2.65139 14.6451 2.64856 14.6548 2.6463 14.6646C2.60517 14.7977 2.56526 14.932 2.52534 15.0674C2.52534 15.0771 2.51929 15.0868 2.51687 15.0965C2.43704 15.3807 2.36204 15.6698 2.2943 15.9638L2.28341 16.0097C2.21567 16.3025 2.15398 16.6 2.09955 16.9L2.09229 16.94C2.06568 17.0839 2.04148 17.2291 2.0185 17.3742V17.3972C1.99431 17.5532 1.97132 17.7105 1.95076 17.869C1.64268 20.1074 1.75964 22.3838 2.29551 24.5788C2.57099 25.7095 2.91599 26.822 3.32854 27.9102C3.32854 27.9235 3.33942 27.9368 3.34426 27.9501C3.39749 28.0868 3.45071 28.2198 3.50394 28.3505L3.52692 28.4049C3.58014 28.5343 3.63458 28.6601 3.68901 28.7835L3.70353 28.815C3.75917 28.9359 3.81602 29.0654 3.87287 29.1851C3.92973 29.3061 3.98658 29.4186 4.04222 29.5311C4.0498 29.5444 4.05666 29.5581 4.06279 29.5722C4.11843 29.6799 4.17287 29.7851 4.22851 29.8867C4.23456 29.9 4.24181 29.9133 4.24907 29.9266C4.30552 30.0306 4.36238 30.1323 4.41963 30.2314C4.47769 30.3319 4.54059 30.4286 4.59382 30.523L4.60712 30.5447C4.66277 30.6355 4.71962 30.7238 4.77526 30.8084C4.78252 30.8205 4.79099 30.8314 4.79825 30.8423C4.85389 30.927 4.90953 31.0092 4.96639 31.0842L4.9809 31.1048C5.10187 31.2681 5.21194 31.4205 5.32686 31.5633C5.33291 31.5705 5.33896 31.579 5.34621 31.5862C5.40186 31.6552 5.45629 31.7205 5.51193 31.7846C5.51919 31.7919 5.52524 31.8003 5.5325 31.8088C5.58935 31.8729 5.64499 31.9358 5.70064 31.9951C5.75749 32.0556 5.81434 32.1161 5.8712 32.1717L5.88208 32.1826C5.93652 32.2382 5.99095 32.2903 6.04538 32.3411L6.06716 32.3616C6.12159 32.4112 6.17482 32.4596 6.22804 32.5056L6.24256 32.5189C6.35263 32.6144 6.4615 32.7015 6.56795 32.7826C6.57391 32.7877 6.58039 32.7921 6.5873 32.7959C6.63811 32.8346 6.68891 32.8721 6.73972 32.9072L6.76028 32.9217L6.89939 33.016L6.50021 34.1047C6.50021 34.1047 6.27642 34.8668 6.82318 35.993C7.3651 37.1566 8.72957 38.7267 12.0573 40.2472C18.5034 43.1939 23.4763 43.9306 27.8043 43.102C28.6172 42.946 29.3261 42.7742 29.943 42.5939L29.9648 42.5673C32.6139 41.7871 33.5622 40.8424 33.786 40.321L34.0824 34.9406L43.9167 22.7486C45.8521 24.4663 47.8662 25.2054 48.7553 24.4058C49.1617 24.0429 49.2742 23.4055 49.1327 22.6228C49.4895 21.8608 48.5581 19.935 46.8985 18.0855ZM6.53287 13.8034C9.38761 9.19827 9.94042 10.0269 10.2162 10.6716C10.2682 10.7926 10.3033 11.1325 10.3372 11.6079C10.3372 11.6635 10.3372 11.7288 10.3469 11.7833C10.3469 11.7966 10.3469 11.8087 10.3469 11.822C10.3469 11.8812 10.3469 11.9429 10.3553 12.0058C10.3553 12.0191 10.3553 12.0325 10.3553 12.0445C10.3553 12.1026 10.3577 12.1619 10.3626 12.2224C10.362 12.2328 10.362 12.2433 10.3626 12.2538C10.3626 12.3216 10.3626 12.3893 10.3698 12.4595C10.3698 12.4764 10.3698 12.4921 10.3698 12.509C10.3698 12.5792 10.3723 12.6506 10.3771 12.7232V12.7558C10.3771 12.8211 10.3771 12.8877 10.3771 12.9554C10.3771 12.9723 10.3771 12.9893 10.3771 13.0074C10.3771 13.0812 10.3771 13.155 10.3844 13.2312C10.3844 13.2518 10.3844 13.2723 10.3844 13.2929C10.3844 13.357 10.3844 13.4211 10.3844 13.4852C10.3844 13.6776 10.394 13.8735 10.4001 14.0719V14.0888L10.4073 14.338V14.3695L10.4352 14.6187V14.6731C10.4352 14.7578 10.4352 14.8424 10.4436 14.9271V14.9513C10.4436 15.0348 10.4436 15.117 10.4521 15.1932V15.2271C10.4521 15.3118 10.4581 15.3952 10.4618 15.4787C10.4618 15.4944 10.4618 15.5102 10.4618 15.5259C10.4618 15.694 10.4751 15.861 10.4823 16.0243C10.4823 16.0424 10.4823 16.0593 10.4823 16.0775C10.4823 16.1561 10.4896 16.2335 10.4944 16.3109C10.4944 16.3255 10.4944 16.3388 10.4944 16.3533C10.4944 16.4271 10.5017 16.4984 10.5053 16.571C10.5053 16.5795 10.5053 16.5879 10.5053 16.5964C10.5053 16.6726 10.5138 16.7476 10.5186 16.8226C10.5186 16.8371 10.5186 16.8529 10.5186 16.8686C10.5186 16.9424 10.5295 17.0149 10.5343 17.0863C10.5343 17.0948 10.5343 17.102 10.5343 17.1105C10.5343 17.177 10.5452 17.2412 10.5501 17.3053V17.3416C10.5501 17.4081 10.561 17.4734 10.567 17.5375V17.5762C10.5743 17.6415 10.5803 17.7057 10.5876 17.7673C10.5876 17.829 10.6009 17.8883 10.6081 17.9439C10.6081 17.956 10.6081 17.9681 10.6081 17.9802C10.6154 18.0347 10.6227 18.0879 10.6311 18.1387C10.6305 18.148 10.6305 18.1573 10.6311 18.1665C10.6384 18.2137 10.6456 18.2597 10.6541 18.3032C10.6535 18.3092 10.6535 18.3153 10.6541 18.3214C10.6626 18.3673 10.6722 18.4109 10.6807 18.452C10.6813 18.4609 10.6813 18.4697 10.6807 18.4786C10.6904 18.5185 10.7001 18.5584 10.7097 18.5935V18.6056C10.7194 18.6379 10.7291 18.6681 10.7388 18.6963C10.7388 18.6963 10.7388 18.7084 10.7388 18.7133C10.7483 18.74 10.7592 18.7663 10.7714 18.7919L10.7787 18.8052C10.7894 18.8262 10.8016 18.8464 10.815 18.8657C10.844 18.9056 10.873 18.9431 10.9009 18.9794L10.9275 19.0145L10.994 19.1016C11.0025 19.1112 11.0097 19.1221 11.017 19.1318L11.0992 19.2334L11.1186 19.2552L11.1839 19.329L11.2093 19.3568C11.2323 19.3822 11.2565 19.4064 11.2819 19.4306L11.294 19.4427C11.3206 19.4681 11.3496 19.4923 11.3775 19.5165L11.4041 19.537C11.4259 19.554 11.4488 19.5697 11.4718 19.5854L11.4984 19.6036C11.5299 19.6229 11.5613 19.6411 11.594 19.658L11.6133 19.6677L11.698 19.7028L11.7319 19.7161L11.7718 19.7294L10.2827 23.8857C9.29931 23.5954 8.00137 23.1006 7.26954 22.3676C5.98006 21.0793 3.67812 18.4085 6.53287 13.8034Z"/>
</mask>
<path d="M46.8985 18.0855C45.2897 16.2952 43.5369 15.1823 42.701 15.3481C41.8797 15.0783 41.1841 15.1061 40.7535 15.492C40.0592 16.115 40.2213 17.5194 41.0378 19.1064L34.8384 21.291L35.1735 15.1848C35.1735 15.1848 36.0952 10.951 31.951 9.47528C27.8068 7.99952 17.6773 4.77825 15.6499 9.47528L15.2072 10.674L15.1842 10.6184L15.0028 11.1095C14.9943 11.0805 14.987 11.0502 14.9786 11.02L14.9677 10.9789C14.9519 10.9232 14.935 10.8664 14.9181 10.8095C14.9181 10.7986 14.9096 10.7865 14.906 10.7744C14.8903 10.726 14.8745 10.6764 14.8576 10.6269C14.8576 10.6123 14.8467 10.5978 14.8419 10.5833C14.8213 10.5252 14.7995 10.4623 14.7765 10.4079L14.7596 10.3656L14.6955 10.2144L14.6774 10.1744C14.6507 10.1152 14.6229 10.0535 14.5939 9.99784C14.5866 9.98332 14.5782 9.96881 14.5709 9.95308C14.5443 9.90107 14.5165 9.85026 14.4874 9.79825L14.4693 9.76801C14.4354 9.70874 14.4004 9.64704 14.3629 9.59382C14.3544 9.5793 14.3447 9.566 14.335 9.55148C14.3 9.49826 14.2637 9.44504 14.225 9.39302C14.2203 9.38789 14.2162 9.3822 14.2129 9.37609C14.1705 9.32044 14.1258 9.26601 14.081 9.21158L14.0471 9.17287C14 9.11843 13.9516 9.06521 13.8996 9.0144C12.7032 7.81444 10.769 5.79072 7.54533 7.3572C7.48243 7.38744 7.42437 7.42131 7.35421 7.4576L7.30099 7.48784C7.24897 7.51808 7.19696 7.54953 7.14373 7.5834L7.10503 7.6076C7.04092 7.64993 6.9768 7.69348 6.91148 7.73945L6.86673 7.77211L6.71068 7.89307L6.65988 7.93299C6.59456 7.9846 6.52924 8.03903 6.46392 8.09629L6.44819 8.11081C6.38771 8.16403 6.32723 8.21846 6.26796 8.27532L6.21594 8.32491C6.15909 8.37934 6.10224 8.43499 6.04538 8.49305L6.01877 8.51966C5.95345 8.5874 5.88813 8.65635 5.82281 8.72772L5.77926 8.77611C5.72483 8.83538 5.67161 8.89707 5.61838 8.95876L5.57604 9.00836C5.51072 9.08577 5.4454 9.1644 5.38129 9.25028L5.36194 9.27448C5.30388 9.34826 5.24098 9.42447 5.18654 9.50189L5.1442 9.55874C5.0813 9.64342 5.02324 9.7293 4.9555 9.8176C4.89139 9.90954 4.82728 10.0039 4.76317 10.0994L4.72809 10.1527C4.67245 10.2361 4.61801 10.3208 4.56358 10.4079L4.53818 10.449C4.47527 10.5494 4.41721 10.6523 4.35068 10.7575L4.33496 10.7829C4.27931 10.8785 4.22367 10.9764 4.16803 11.0744L4.13779 11.1276C4.01763 11.3381 3.89908 11.5603 3.78215 11.7942L3.75675 11.845C3.70353 11.9562 3.64909 12.0675 3.59708 12.18C3.59473 12.1855 3.59189 12.1908 3.58861 12.1958C3.53176 12.3167 3.47611 12.4377 3.42047 12.5683L3.40958 12.5937C3.35878 12.7147 3.30918 12.8284 3.25959 12.9469C3.25959 12.9602 3.2487 12.9748 3.24265 12.9881C3.13862 13.2429 3.03863 13.5034 2.94266 13.7695C2.94266 13.7852 2.93178 13.7997 2.92694 13.8155C2.83178 14.084 2.74106 14.3574 2.65477 14.6356C2.65139 14.6451 2.64856 14.6548 2.6463 14.6646C2.60517 14.7977 2.56526 14.932 2.52534 15.0674C2.52534 15.0771 2.51929 15.0868 2.51687 15.0965C2.43704 15.3807 2.36204 15.6698 2.2943 15.9638L2.28341 16.0097C2.21567 16.3025 2.15398 16.6 2.09955 16.9L2.09229 16.94C2.06568 17.0839 2.04148 17.2291 2.0185 17.3742V17.3972C1.99431 17.5532 1.97132 17.7105 1.95076 17.869C1.64268 20.1074 1.75964 22.3838 2.29551 24.5788C2.57099 25.7095 2.91599 26.822 3.32854 27.9102C3.32854 27.9235 3.33942 27.9368 3.34426 27.9501C3.39749 28.0868 3.45071 28.2198 3.50394 28.3505L3.52692 28.4049C3.58014 28.5343 3.63458 28.6601 3.68901 28.7835L3.70353 28.815C3.75917 28.9359 3.81602 29.0654 3.87287 29.1851C3.92973 29.3061 3.98658 29.4186 4.04222 29.5311C4.0498 29.5444 4.05666 29.5581 4.06279 29.5722C4.11843 29.6799 4.17287 29.7851 4.22851 29.8867C4.23456 29.9 4.24181 29.9133 4.24907 29.9266C4.30552 30.0306 4.36238 30.1323 4.41963 30.2314C4.47769 30.3319 4.54059 30.4286 4.59382 30.523L4.60712 30.5447C4.66277 30.6355 4.71962 30.7238 4.77526 30.8084C4.78252 30.8205 4.79099 30.8314 4.79825 30.8423C4.85389 30.927 4.90953 31.0092 4.96639 31.0842L4.9809 31.1048C5.10187 31.2681 5.21194 31.4205 5.32686 31.5633C5.33291 31.5705 5.33896 31.579 5.34621 31.5862C5.40186 31.6552 5.45629 31.7205 5.51193 31.7846C5.51919 31.7919 5.52524 31.8003 5.5325 31.8088C5.58935 31.8729 5.64499 31.9358 5.70064 31.9951C5.75749 32.0556 5.81434 32.1161 5.8712 32.1717L5.88208 32.1826C5.93652 32.2382 5.99095 32.2903 6.04538 32.3411L6.06716 32.3616C6.12159 32.4112 6.17482 32.4596 6.22804 32.5056L6.24256 32.5189C6.35263 32.6144 6.4615 32.7015 6.56795 32.7826C6.57391 32.7877 6.58039 32.7921 6.5873 32.7959C6.63811 32.8346 6.68891 32.8721 6.73972 32.9072L6.76028 32.9217L6.89939 33.016L6.50021 34.1047C6.50021 34.1047 6.27642 34.8668 6.82318 35.993C7.3651 37.1566 8.72957 38.7267 12.0573 40.2472C18.5034 43.1939 23.4763 43.9306 27.8043 43.102C28.6172 42.946 29.3261 42.7742 29.943 42.5939L29.9648 42.5673C32.6139 41.7871 33.5622 40.8424 33.786 40.321L34.0824 34.9406L43.9167 22.7486C45.8521 24.4663 47.8662 25.2054 48.7553 24.4058C49.1617 24.0429 49.2742 23.4055 49.1327 22.6228C49.4895 21.8608 48.5581 19.935 46.8985 18.0855ZM6.53287 13.8034C9.38761 9.19827 9.94042 10.0269 10.2162 10.6716C10.2682 10.7926 10.3033 11.1325 10.3372 11.6079C10.3372 11.6635 10.3372 11.7288 10.3469 11.7833C10.3469 11.7966 10.3469 11.8087 10.3469 11.822C10.3469 11.8812 10.3469 11.9429 10.3553 12.0058C10.3553 12.0191 10.3553 12.0325 10.3553 12.0445C10.3553 12.1026 10.3577 12.1619 10.3626 12.2224C10.362 12.2328 10.362 12.2433 10.3626 12.2538C10.3626 12.3216 10.3626 12.3893 10.3698 12.4595C10.3698 12.4764 10.3698 12.4921 10.3698 12.509C10.3698 12.5792 10.3723 12.6506 10.3771 12.7232V12.7558C10.3771 12.8211 10.3771 12.8877 10.3771 12.9554C10.3771 12.9723 10.3771 12.9893 10.3771 13.0074C10.3771 13.0812 10.3771 13.155 10.3844 13.2312C10.3844 13.2518 10.3844 13.2723 10.3844 13.2929C10.3844 13.357 10.3844 13.4211 10.3844 13.4852C10.3844 13.6776 10.394 13.8735 10.4001 14.0719V14.0888L10.4073 14.338V14.3695L10.4352 14.6187V14.6731C10.4352 14.7578 10.4352 14.8424 10.4436 14.9271V14.9513C10.4436 15.0348 10.4436 15.117 10.4521 15.1932V15.2271C10.4521 15.3118 10.4581 15.3952 10.4618 15.4787C10.4618 15.4944 10.4618 15.5102 10.4618 15.5259C10.4618 15.694 10.4751 15.861 10.4823 16.0243C10.4823 16.0424 10.4823 16.0593 10.4823 16.0775C10.4823 16.1561 10.4896 16.2335 10.4944 16.3109C10.4944 16.3255 10.4944 16.3388 10.4944 16.3533C10.4944 16.4271 10.5017 16.4984 10.5053 16.571C10.5053 16.5795 10.5053 16.5879 10.5053 16.5964C10.5053 16.6726 10.5138 16.7476 10.5186 16.8226C10.5186 16.8371 10.5186 16.8529 10.5186 16.8686C10.5186 16.9424 10.5295 17.0149 10.5343 17.0863C10.5343 17.0948 10.5343 17.102 10.5343 17.1105C10.5343 17.177 10.5452 17.2412 10.5501 17.3053V17.3416C10.5501 17.4081 10.561 17.4734 10.567 17.5375V17.5762C10.5743 17.6415 10.5803 17.7057 10.5876 17.7673C10.5876 17.829 10.6009 17.8883 10.6081 17.9439C10.6081 17.956 10.6081 17.9681 10.6081 17.9802C10.6154 18.0347 10.6227 18.0879 10.6311 18.1387C10.6305 18.148 10.6305 18.1573 10.6311 18.1665C10.6384 18.2137 10.6456 18.2597 10.6541 18.3032C10.6535 18.3092 10.6535 18.3153 10.6541 18.3214C10.6626 18.3673 10.6722 18.4109 10.6807 18.452C10.6813 18.4609 10.6813 18.4697 10.6807 18.4786C10.6904 18.5185 10.7001 18.5584 10.7097 18.5935V18.6056C10.7194 18.6379 10.7291 18.6681 10.7388 18.6963C10.7388 18.6963 10.7388 18.7084 10.7388 18.7133C10.7483 18.74 10.7592 18.7663 10.7714 18.7919L10.7787 18.8052C10.7894 18.8262 10.8016 18.8464 10.815 18.8657C10.844 18.9056 10.873 18.9431 10.9009 18.9794L10.9275 19.0145L10.994 19.1016C11.0025 19.1112 11.0097 19.1221 11.017 19.1318L11.0992 19.2334L11.1186 19.2552L11.1839 19.329L11.2093 19.3568C11.2323 19.3822 11.2565 19.4064 11.2819 19.4306L11.294 19.4427C11.3206 19.4681 11.3496 19.4923 11.3775 19.5165L11.4041 19.537C11.4259 19.554 11.4488 19.5697 11.4718 19.5854L11.4984 19.6036C11.5299 19.6229 11.5613 19.6411 11.594 19.658L11.6133 19.6677L11.698 19.7028L11.7319 19.7161L11.7718 19.7294L10.2827 23.8857C9.29931 23.5954 8.00137 23.1006 7.26954 22.3676C5.98006 21.0793 3.67812 18.4085 6.53287 13.8034Z" fill="#D3A1A1"/>
<path d="M46.8985 18.0855C45.2897 16.2952 43.5369 15.1823 42.701 15.3481C41.8797 15.0783 41.1841 15.1061 40.7535 15.492C40.0592 16.115 40.2213 17.5194 41.0378 19.1064L34.8384 21.291L35.1735 15.1848C35.1735 15.1848 36.0952 10.951 31.951 9.47528C27.8068 7.99952 17.6773 4.77825 15.6499 9.47528L15.2072 10.674L15.1842 10.6184L15.0028 11.1095C14.9943 11.0805 14.987 11.0502 14.9786 11.02L14.9677 10.9789C14.9519 10.9232 14.935 10.8664 14.9181 10.8095C14.9181 10.7986 14.9096 10.7865 14.906 10.7744C14.8903 10.726 14.8745 10.6764 14.8576 10.6269C14.8576 10.6123 14.8467 10.5978 14.8419 10.5833C14.8213 10.5252 14.7995 10.4623 14.7765 10.4079L14.7596 10.3656L14.6955 10.2144L14.6774 10.1744C14.6507 10.1152 14.6229 10.0535 14.5939 9.99784C14.5866 9.98332 14.5782 9.96881 14.5709 9.95308C14.5443 9.90107 14.5165 9.85026 14.4874 9.79825L14.4693 9.76801C14.4354 9.70874 14.4004 9.64704 14.3629 9.59382C14.3544 9.5793 14.3447 9.566 14.335 9.55148C14.3 9.49826 14.2637 9.44504 14.225 9.39302C14.2203 9.38789 14.2162 9.3822 14.2129 9.37609C14.1705 9.32044 14.1258 9.26601 14.081 9.21158L14.0471 9.17287C14 9.11843 13.9516 9.06521 13.8996 9.0144C12.7032 7.81444 10.769 5.79072 7.54533 7.3572C7.48243 7.38744 7.42437 7.42131 7.35421 7.4576L7.30099 7.48784C7.24897 7.51808 7.19696 7.54953 7.14373 7.5834L7.10503 7.6076C7.04092 7.64993 6.9768 7.69348 6.91148 7.73945L6.86673 7.77211L6.71068 7.89307L6.65988 7.93299C6.59456 7.9846 6.52924 8.03903 6.46392 8.09629L6.44819 8.11081C6.38771 8.16403 6.32723 8.21846 6.26796 8.27532L6.21594 8.32491C6.15909 8.37934 6.10224 8.43499 6.04538 8.49305L6.01877 8.51966C5.95345 8.5874 5.88813 8.65635 5.82281 8.72772L5.77926 8.77611C5.72483 8.83538 5.67161 8.89707 5.61838 8.95876L5.57604 9.00836C5.51072 9.08577 5.4454 9.1644 5.38129 9.25028L5.36194 9.27448C5.30388 9.34826 5.24098 9.42447 5.18654 9.50189L5.1442 9.55874C5.0813 9.64342 5.02324 9.7293 4.9555 9.8176C4.89139 9.90954 4.82728 10.0039 4.76317 10.0994L4.72809 10.1527C4.67245 10.2361 4.61801 10.3208 4.56358 10.4079L4.53818 10.449C4.47527 10.5494 4.41721 10.6523 4.35068 10.7575L4.33496 10.7829C4.27931 10.8785 4.22367 10.9764 4.16803 11.0744L4.13779 11.1276C4.01763 11.3381 3.89908 11.5603 3.78215 11.7942L3.75675 11.845C3.70353 11.9562 3.64909 12.0675 3.59708 12.18C3.59473 12.1855 3.59189 12.1908 3.58861 12.1958C3.53176 12.3167 3.47611 12.4377 3.42047 12.5683L3.40958 12.5937C3.35878 12.7147 3.30918 12.8284 3.25959 12.9469C3.25959 12.9602 3.2487 12.9748 3.24265 12.9881C3.13862 13.2429 3.03863 13.5034 2.94266 13.7695C2.94266 13.7852 2.93178 13.7997 2.92694 13.8155C2.83178 14.084 2.74106 14.3574 2.65477 14.6356C2.65139 14.6451 2.64856 14.6548 2.6463 14.6646C2.60517 14.7977 2.56526 14.932 2.52534 15.0674C2.52534 15.0771 2.51929 15.0868 2.51687 15.0965C2.43704 15.3807 2.36204 15.6698 2.2943 15.9638L2.28341 16.0097C2.21567 16.3025 2.15398 16.6 2.09955 16.9L2.09229 16.94C2.06568 17.0839 2.04148 17.2291 2.0185 17.3742V17.3972C1.99431 17.5532 1.97132 17.7105 1.95076 17.869C1.64268 20.1074 1.75964 22.3838 2.29551 24.5788C2.57099 25.7095 2.91599 26.822 3.32854 27.9102C3.32854 27.9235 3.33942 27.9368 3.34426 27.9501C3.39749 28.0868 3.45071 28.2198 3.50394 28.3505L3.52692 28.4049C3.58014 28.5343 3.63458 28.6601 3.68901 28.7835L3.70353 28.815C3.75917 28.9359 3.81602 29.0654 3.87287 29.1851C3.92973 29.3061 3.98658 29.4186 4.04222 29.5311C4.0498 29.5444 4.05666 29.5581 4.06279 29.5722C4.11843 29.6799 4.17287 29.7851 4.22851 29.8867C4.23456 29.9 4.24181 29.9133 4.24907 29.9266C4.30552 30.0306 4.36238 30.1323 4.41963 30.2314C4.47769 30.3319 4.54059 30.4286 4.59382 30.523L4.60712 30.5447C4.66277 30.6355 4.71962 30.7238 4.77526 30.8084C4.78252 30.8205 4.79099 30.8314 4.79825 30.8423C4.85389 30.927 4.90953 31.0092 4.96639 31.0842L4.9809 31.1048C5.10187 31.2681 5.21194 31.4205 5.32686 31.5633C5.33291 31.5705 5.33896 31.579 5.34621 31.5862C5.40186 31.6552 5.45629 31.7205 5.51193 31.7846C5.51919 31.7919 5.52524 31.8003 5.5325 31.8088C5.58935 31.8729 5.64499 31.9358 5.70064 31.9951C5.75749 32.0556 5.81434 32.1161 5.8712 32.1717L5.88208 32.1826C5.93652 32.2382 5.99095 32.2903 6.04538 32.3411L6.06716 32.3616C6.12159 32.4112 6.17482 32.4596 6.22804 32.5056L6.24256 32.5189C6.35263 32.6144 6.4615 32.7015 6.56795 32.7826C6.57391 32.7877 6.58039 32.7921 6.5873 32.7959C6.63811 32.8346 6.68891 32.8721 6.73972 32.9072L6.76028 32.9217L6.89939 33.016L6.50021 34.1047C6.50021 34.1047 6.27642 34.8668 6.82318 35.993C7.3651 37.1566 8.72957 38.7267 12.0573 40.2472C18.5034 43.1939 23.4763 43.9306 27.8043 43.102C28.6172 42.946 29.3261 42.7742 29.943 42.5939L29.9648 42.5673C32.6139 41.7871 33.5622 40.8424 33.786 40.321L34.0824 34.9406L43.9167 22.7486C45.8521 24.4663 47.8662 25.2054 48.7553 24.4058C49.1617 24.0429 49.2742 23.4055 49.1327 22.6228C49.4895 21.8608 48.5581 19.935 46.8985 18.0855ZM6.53287 13.8034C9.38761 9.19827 9.94042 10.0269 10.2162 10.6716C10.2682 10.7926 10.3033 11.1325 10.3372 11.6079C10.3372 11.6635 10.3372 11.7288 10.3469 11.7833C10.3469 11.7966 10.3469 11.8087 10.3469 11.822C10.3469 11.8812 10.3469 11.9429 10.3553 12.0058C10.3553 12.0191 10.3553 12.0325 10.3553 12.0445C10.3553 12.1026 10.3577 12.1619 10.3626 12.2224C10.362 12.2328 10.362 12.2433 10.3626 12.2538C10.3626 12.3216 10.3626 12.3893 10.3698 12.4595C10.3698 12.4764 10.3698 12.4921 10.3698 12.509C10.3698 12.5792 10.3723 12.6506 10.3771 12.7232V12.7558C10.3771 12.8211 10.3771 12.8877 10.3771 12.9554C10.3771 12.9723 10.3771 12.9893 10.3771 13.0074C10.3771 13.0812 10.3771 13.155 10.3844 13.2312C10.3844 13.2518 10.3844 13.2723 10.3844 13.2929C10.3844 13.357 10.3844 13.4211 10.3844 13.4852C10.3844 13.6776 10.394 13.8735 10.4001 14.0719V14.0888L10.4073 14.338V14.3695L10.4352 14.6187V14.6731C10.4352 14.7578 10.4352 14.8424 10.4436 14.9271V14.9513C10.4436 15.0348 10.4436 15.117 10.4521 15.1932V15.2271C10.4521 15.3118 10.4581 15.3952 10.4618 15.4787C10.4618 15.4944 10.4618 15.5102 10.4618 15.5259C10.4618 15.694 10.4751 15.861 10.4823 16.0243C10.4823 16.0424 10.4823 16.0593 10.4823 16.0775C10.4823 16.1561 10.4896 16.2335 10.4944 16.3109C10.4944 16.3255 10.4944 16.3388 10.4944 16.3533C10.4944 16.4271 10.5017 16.4984 10.5053 16.571C10.5053 16.5795 10.5053 16.5879 10.5053 16.5964C10.5053 16.6726 10.5138 16.7476 10.5186 16.8226C10.5186 16.8371 10.5186 16.8529 10.5186 16.8686C10.5186 16.9424 10.5295 17.0149 10.5343 17.0863C10.5343 17.0948 10.5343 17.102 10.5343 17.1105C10.5343 17.177 10.5452 17.2412 10.5501 17.3053V17.3416C10.5501 17.4081 10.561 17.4734 10.567 17.5375V17.5762C10.5743 17.6415 10.5803 17.7057 10.5876 17.7673C10.5876 17.829 10.6009 17.8883 10.6081 17.9439C10.6081 17.956 10.6081 17.9681 10.6081 17.9802C10.6154 18.0347 10.6227 18.0879 10.6311 18.1387C10.6305 18.148 10.6305 18.1573 10.6311 18.1665C10.6384 18.2137 10.6456 18.2597 10.6541 18.3032C10.6535 18.3092 10.6535 18.3153 10.6541 18.3214C10.6626 18.3673 10.6722 18.4109 10.6807 18.452C10.6813 18.4609 10.6813 18.4697 10.6807 18.4786C10.6904 18.5185 10.7001 18.5584 10.7097 18.5935V18.6056C10.7194 18.6379 10.7291 18.6681 10.7388 18.6963C10.7388 18.6963 10.7388 18.7084 10.7388 18.7133C10.7483 18.74 10.7592 18.7663 10.7714 18.7919L10.7787 18.8052C10.7894 18.8262 10.8016 18.8464 10.815 18.8657C10.844 18.9056 10.873 18.9431 10.9009 18.9794L10.9275 19.0145L10.994 19.1016C11.0025 19.1112 11.0097 19.1221 11.017 19.1318L11.0992 19.2334L11.1186 19.2552L11.1839 19.329L11.2093 19.3568C11.2323 19.3822 11.2565 19.4064 11.2819 19.4306L11.294 19.4427C11.3206 19.4681 11.3496 19.4923 11.3775 19.5165L11.4041 19.537C11.4259 19.554 11.4488 19.5697 11.4718 19.5854L11.4984 19.6036C11.5299 19.6229 11.5613 19.6411 11.594 19.658L11.6133 19.6677L11.698 19.7028L11.7319 19.7161L11.7718 19.7294L10.2827 23.8857C9.29931 23.5954 8.00137 23.1006 7.26954 22.3676C5.98006 21.0793 3.67812 18.4085 6.53287 13.8034Z" stroke="black" stroke-width="2" stroke-miterlimit="10" mask="url(#path-1-outside-1_1_1618)"/>
<path d="M15.3004 12.2381C15.3004 12.2381 15.2084 10.212 14.0109 9.01441C12.8134 7.81687 10.8792 5.79072 7.65305 7.35721C4.42694 8.92369 0.472639 16.842 2.40685 24.5788C4.34106 32.3157 7.19581 33.235 8.576 33.7878C9.9562 34.3406 11.7078 24.2099 11.7078 24.2099C11.7078 24.2099 8.66914 23.6607 7.37967 22.3676C6.0902 21.0745 3.78826 18.4085 6.643 13.8034C9.49775 9.19827 10.0505 10.0269 10.3276 10.6716C10.6046 11.3163 10.4195 18.1314 10.9723 18.8681C11.5251 19.6048 11.8009 19.9737 13.0904 19.6979C14.3798 19.4221 15.3004 12.2381 15.3004 12.2381Z" stroke="#B22424" stroke-width="0.0604819" stroke-miterlimit="10"/>
<path d="M15.3004 12.2381C15.3004 12.2381 15.2084 10.212 14.0109 9.01441C12.8134 7.81687 10.8792 5.79072 7.65305 7.35721C4.42694 8.92369 0.472639 16.842 2.40685 24.5788C4.34106 32.3157 7.19581 33.235 8.576 33.7878C9.9562 34.3406 11.7078 24.2099 11.7078 24.2099C11.7078 24.2099 8.66914 23.6607 7.37967 22.3676C6.0902 21.0745 3.78826 18.4085 6.643 13.8034C9.49775 9.19827 10.0505 10.0269 10.3276 10.6716C10.6046 11.3163 10.4195 18.1314 10.9723 18.8681C11.5251 19.6048 11.8009 19.9737 13.0904 19.6979C14.3798 19.4221 15.3004 12.2381 15.3004 12.2381Z" fill="#E80000"/>
<path d="M15.2737 11.9454C15.1987 11.3405 14.9314 9.93373 14.0121 9.0144C12.8133 7.81444 10.8791 5.79072 7.65303 7.3572C5.38133 8.4616 2.73948 12.7316 2.06208 17.869C3.12535 15.0082 4.36039 12.4353 5.39947 10.9026C7.14982 8.3237 8.80702 7.95476 11.0182 8.3237C12.5702 8.58256 14.3508 10.7055 15.2737 11.9454Z" fill="#F27C7C"/>
<path d="M10.59 29.4863C10.097 29.6583 9.62316 29.8809 9.17596 30.1504C6.96353 31.4229 4.71724 29.3387 3.27656 27.4723C5.12005 32.5673 7.38933 33.3136 8.57719 33.7878C9.24128 34.0539 9.99126 31.8475 10.59 29.4863Z" fill="#B22424"/>
<path d="M10.4413 11.6054C10.5622 13.6618 10.5223 18.2693 10.9723 18.8633C11.369 19.3943 11.6243 19.7342 12.217 19.779C12.2122 17.1637 11.04 13.3788 10.4413 11.6054Z" fill="#B22424"/>
<path d="M33.3506 35.9978L44.4938 22.1837L41.8229 18.8681L32.1531 22.2757L33.3506 35.9978Z" fill="#E80000"/>
<path d="M41.8229 18.8681L32.1531 22.2757L32.4446 25.607L42.9999 20.3294L41.8229 18.8681Z" fill="#F27C7C"/>
<path d="M33.3506 35.9978L44.4938 22.1837L43.8382 21.3696L33.0603 32.6689L33.3506 35.9978Z" fill="#B70909"/>
<path d="M15.7576 9.47529L6.64057 34.1519C6.64057 34.1519 5.71762 37.2873 12.1686 40.2327C18.6196 43.1782 23.5888 43.9173 27.9169 43.0887C32.245 42.2601 33.6264 40.9694 33.9034 40.3259L35.2848 15.1848C35.2848 15.1848 36.2053 10.951 32.0611 9.47529C27.9169 7.99953 17.7862 4.77826 15.7576 9.47529Z" fill="#F27C7C"/>
<path d="M32.456 11.274C32.5905 10.6619 29.7246 9.51222 26.0549 8.70605C22.3853 7.89989 19.3014 7.74253 19.1669 8.35458C19.0325 8.96663 21.8983 10.1163 25.568 10.9225C29.2377 11.7286 32.3216 11.886 32.456 11.274Z" fill="#B70909"/>
<path d="M19.6067 8.90312C20.5345 9.52125 22.8267 10.316 25.5678 10.9172C27.9205 11.4434 30.0313 11.6853 31.2785 11.6405C30.3507 11.0224 28.0584 10.2337 25.3138 9.6289C22.9646 9.10876 20.855 8.85957 19.6067 8.90312Z" fill="#7C1313"/>
<path d="M30.0591 42.6L30.0809 42.5734C30.0809 42.5734 30.266 19.0072 28.7914 16.1513C27.3169 13.2953 18.3849 10.7176 17.0035 10.166C15.8846 9.71841 16.0153 9.09907 16.1048 8.88013C15.9711 9.07262 15.8573 9.27808 15.7649 9.49341L6.64782 34.17C6.64782 34.17 5.72728 37.3018 12.1734 40.2484C18.6196 43.1951 23.5936 43.9318 27.9217 43.1032C28.7334 42.952 29.4422 42.7802 30.0591 42.6Z" fill="#E80000"/>
<path d="M15.6221 13.5735C15.8217 12.1087 15.4927 11.078 15.2943 10.6184L6.61638 34.1108C6.61638 34.1108 5.98979 36.2433 9.39855 38.6457C11.6255 33.7212 15.3657 15.4521 15.6221 13.5735Z" fill="#B70909"/>
<path d="M48.8738 24.4132C49.9336 23.4616 48.9999 20.6935 46.7883 18.2304C44.5768 15.7673 41.9248 14.5419 40.865 15.4935C39.8052 16.4451 40.7389 19.2132 42.9505 21.6763C45.162 24.1394 47.814 25.3647 48.8738 24.4132Z" fill="#E80000"/>
<path d="M49.1173 22.8181C49.7714 22.2307 48.8273 20.1124 47.0085 18.0868C45.1897 16.0611 43.185 14.8952 42.5308 15.4826C41.8767 16.0699 42.8208 18.1882 44.6396 20.2138C46.4584 22.2395 48.4631 23.4055 49.1173 22.8181Z" fill="#F27C7C"/>
<path d="M44.0284 16.8538C44.1298 16.7628 44.038 16.4951 43.8233 16.256C43.6086 16.0169 43.3524 15.8969 43.251 15.988C43.1496 16.079 43.2414 16.3467 43.4561 16.5858C43.6708 16.8249 43.927 16.9449 44.0284 16.8538Z" fill="#D3A1A1"/>
<path d="M44.0276 18.5115C44.129 18.4205 44.0371 18.1528 43.8225 17.9137C43.6078 17.6746 43.3515 17.5546 43.2501 17.6457C43.1487 17.7367 43.2405 18.0043 43.4552 18.2434C43.6699 18.4825 43.9262 18.6026 44.0276 18.5115Z" fill="#D3A1A1"/>
<path d="M45.9617 19.8009C46.0631 19.7098 45.9713 19.4422 45.7566 19.2031C45.5419 18.964 45.2857 18.8439 45.1843 18.935C45.0829 19.026 45.1747 19.2937 45.3894 19.5328C45.6041 19.7719 45.8603 19.8919 45.9617 19.8009Z" fill="#D3A1A1"/>
<path d="M45.9626 18.1432C46.064 18.0521 45.9722 17.7845 45.7575 17.5454C45.5428 17.3063 45.2866 17.1863 45.1852 17.2773C45.0838 17.3684 45.1756 17.636 45.3903 17.8751C45.605 18.1142 45.8612 18.2343 45.9626 18.1432Z" fill="#D3A1A1"/>
<path d="M47.5266 19.8929C47.628 19.8018 47.5361 19.5342 47.3215 19.2951C47.1068 19.056 46.8505 18.9359 46.7491 19.027C46.6477 19.1181 46.7395 19.3857 46.9542 19.6248C47.1689 19.8639 47.4252 19.9839 47.5266 19.8929Z" fill="#D3A1A1"/>
<path d="M48.632 22.01C48.7335 21.919 48.6416 21.6513 48.4269 21.4122C48.2123 21.1731 47.956 21.0531 47.8546 21.1442C47.7532 21.2352 47.845 21.5029 48.0597 21.742C48.2744 21.9811 48.5306 22.1011 48.632 22.01Z" fill="#D3A1A1"/>
<path d="M46.9749 21.8264C47.0763 21.7353 46.9845 21.4677 46.7698 21.2286C46.5552 20.9895 46.2989 20.8695 46.1975 20.9605C46.0961 21.0516 46.1879 21.3192 46.4026 21.5583C46.6173 21.7974 46.8735 21.9174 46.9749 21.8264Z" fill="#D3A1A1"/>
</svg>
