<svg width="50" height="51" viewBox="0 0 50 51" fill="none" xmlns="http://www.w3.org/2000/svg">
<path d="M14.5636 31.1006L14.5634 31.101L17.6836 30.3511L17.8723 29.8881L17.8721 29.888C17.8719 29.8879 17.8717 29.8878 17.8714 29.8877L17.6195 29.785C17.3327 29.668 17.0256 29.6092 16.7159 29.6121C16.4062 29.6151 16.1002 29.6797 15.8157 29.8021C15.5312 29.9246 15.274 30.1025 15.059 30.3254C14.844 30.5484 14.6756 30.8119 14.5636 31.1006Z" fill="#C17333" stroke="black" stroke-miterlimit="10"/>
<path d="M23.017 8.94179C34.5521 4.47864 43.9547 11.5257 46.9416 14.1835C47.0614 14.2925 47.2173 14.3536 47.3796 14.3548C47.5444 14.3559 47.7037 14.2952 47.8258 14.1845C47.948 14.0739 48.0242 13.9214 48.0393 13.7572C48.0541 13.596 48.0089 13.4352 47.9127 13.3054C43.0682 6.5847 31.945 2.08521 21.8045 6.24409L21.8044 6.24409C17.4254 8.04017 14.9915 9.87584 13.6029 11.8796C12.2135 13.8846 11.9186 15.9952 11.675 18.1881L11.675 18.1882C11.5416 19.3906 11.8697 20.6564 12.3944 21.848C12.9215 23.0448 13.665 24.2076 14.4133 25.2196C15.1631 26.2335 15.9266 27.1079 16.5019 27.7283C16.7899 28.0389 17.0316 28.2867 17.2018 28.4575C17.2076 28.4632 17.2133 28.4689 17.2189 28.4745C17.212 28.4898 17.2049 28.5055 17.1977 28.5216C17.0991 28.7416 16.9678 29.0364 16.8377 29.3347C16.708 29.632 16.5777 29.9366 16.482 30.1747C16.4346 30.2928 16.3929 30.4013 16.3638 30.487C16.3497 30.5285 16.3348 30.5752 16.3241 30.6196C16.319 30.6408 16.3116 30.6745 16.3077 30.7135C16.3076 30.7139 16.3076 30.7145 16.3075 30.7153C16.3054 30.7334 16.2916 30.8532 16.3489 30.9825L16.4088 31.1174L16.5324 31.1982L17.4294 31.7847L17.8689 32.072L18.1344 31.619L20.2438 28.0198L20.4705 27.6331L20.1108 27.3657C19.6174 26.9989 19.1427 26.6075 18.6887 26.1928L18.6888 26.1928L18.6838 26.1884C18.5037 26.0283 17.8005 25.1919 17.0677 23.9094C16.3425 22.6402 15.619 20.9861 15.3557 19.2067C15.0934 17.4344 15.2888 15.5518 16.3804 13.7846C17.4743 12.0136 19.5036 10.3014 23.017 8.94179ZM23.017 8.94179L22.8366 8.47548M23.017 8.94179L22.8366 8.47548M22.8366 8.47548C8.50451 14.0217 17.3956 25.7122 18.3516 26.5621M22.8366 8.47548C33.8783 4.20323 42.9906 10.2317 46.5962 13.2275C46.7728 13.4468 46.9421 13.669 47.104 13.8936L47.1038 13.8937L47.1121 13.9046C47.1094 13.901 47.1067 13.8973 47.1041 13.8936C47.0576 13.8273 47.036 13.7466 47.0435 13.6658C47.045 13.6485 47.0479 13.6315 47.052 13.6148C47.0744 13.6343 47.0965 13.6536 47.1183 13.6726C47.1635 13.7121 47.2073 13.7508 47.2499 13.7886C47.2521 13.7905 47.2543 13.7925 47.2566 13.7945C47.2633 13.8005 47.27 13.8065 47.2767 13.8124C47.3056 13.8394 47.3436 13.8545 47.3831 13.8548C47.4227 13.8551 47.4609 13.8405 47.4902 13.8139C47.5195 13.7874 47.5377 13.7508 47.5414 13.7115C47.545 13.6721 47.5337 13.6328 47.5097 13.6014L18.3516 26.5621M18.3516 26.5621C18.818 26.988 19.3056 27.3902 19.8125 27.767L18.3516 26.5621ZM47.3314 13.3589C47.3496 13.356 47.3681 13.3547 47.3867 13.3548C47.4687 13.3554 47.5476 13.3854 47.6091 13.439C47.612 13.4415 47.6149 13.4441 47.6177 13.4467L47.6178 13.4466L47.6092 13.4389C47.4175 13.2684 47.1988 13.079 46.9541 12.875C41.9769 6.73238 31.5342 2.7941 21.9942 6.70669C13.3227 10.2633 12.659 13.8583 12.172 18.2433C11.6928 22.5624 17.8181 28.362 17.8181 28.362C17.8181 28.362 16.763 30.683 16.806 30.7797L47.3314 13.3589Z" fill="white" stroke="black" stroke-miterlimit="10"/>
<path d="M14.5635 31.1008L14.5636 31.1006C14.6756 30.8119 14.844 30.5484 15.059 30.3254C15.274 30.1025 15.5312 29.9246 15.8157 29.8021C16.1002 29.6797 16.4062 29.6151 16.7159 29.6121C17.0255 29.6092 17.3326 29.6679 17.6193 29.7849L14.5635 31.1008ZM14.5635 31.1008C14.4232 31.4626 14.2598 31.868 14.0706 32.3037L13.7881 32.9541L14.4956 33.0018C15.7532 33.0865 17.1933 33.3328 18.2166 33.9333L18.7726 34.2596L18.9503 33.6399C19.0416 33.3218 19.1272 33.0245 19.2151 32.7479L19.2154 32.7469C19.3914 32.1887 19.351 31.5848 19.1021 31.0552C18.8532 30.5255 18.4142 30.1089 17.8723 29.8881C17.8723 29.8881 17.8723 29.888 17.8722 29.888L17.6195 29.785L14.5635 31.1008Z" fill="#CECCCC" stroke="black" stroke-miterlimit="10"/>
</svg>
