<svg width="398" height="26" viewBox="0 0 398 26" fill="none" xmlns="http://www.w3.org/2000/svg">
<path d="M397.915 12.8848V12.7428C397.915 12.6653 397.915 12.5879 397.915 12.5104C397.915 12.433 397.915 12.0845 397.915 11.865V11.594C397.909 11.5511 397.909 11.5077 397.915 11.4649C397.915 11.2325 397.838 11.0002 397.786 10.7679C397.657 10.105 397.475 9.45327 397.244 8.81875C397.215 8.71363 397.181 8.6102 397.141 8.50896L396.908 7.941V7.86355L396.637 7.2956C396.508 7.05035 396.379 6.8051 396.237 6.57275C395.689 5.65781 395.006 4.83097 394.21 4.12023L393.991 3.92661L393.475 3.52647H393.384C393.136 3.34806 392.877 3.18428 392.61 3.03596L391.732 2.59709L391.435 2.41638C390.991 2.23543 390.534 2.08871 390.067 1.97751C389.192 1.7653 388.295 1.66126 387.395 1.66771H10.4813C9.57703 1.66046 8.6753 1.76451 7.79644 1.97751C7.45222 2.07216 7.11662 2.17543 6.78961 2.2873C6.44396 2.43908 6.10775 2.6115 5.78279 2.80362C5.03328 3.1707 4.33825 3.63984 3.71751 4.19768L3.36899 4.53329C3.10235 4.80178 2.85233 5.08629 2.62033 5.38522C2.11933 6.00375 1.68656 6.67455 1.32953 7.38596C1.21336 7.63121 1.09718 7.87646 0.993919 8.12172C0.890655 8.36697 0.993919 8.21207 0.993919 8.2637L0.91647 8.45732C0.856564 8.59176 0.804838 8.7297 0.761574 8.87038C0.701573 9.02112 0.654083 9.17654 0.619587 9.33507C0.619587 9.33507 0.619587 9.45124 0.555046 9.51578V9.67068L0.374335 10.1612C0.374335 10.3806 0.283978 10.6001 0.232346 10.8195V11.0906C0.232346 11.3616 0.14199 11.6198 0.116174 11.8909C0.0903581 12.1619 0.0516348 12.4717 0.0387268 12.7557V12.8331C0.0387268 13.0913 0.0387268 13.3495 0.0387268 13.5947C0.0386973 14.552 0.12946 15.5072 0.309795 16.4474C0.309795 16.6539 0.387242 16.8475 0.438874 17.0282V17.1057C0.438874 17.3768 0.567955 17.6349 0.645403 17.906V18.0609C0.709269 18.2891 0.786857 18.5132 0.877747 18.7321C1.45641 20.3815 2.42124 21.8686 3.69169 23.0692C4.05857 23.4182 4.45601 23.7335 4.87923 24.0115C6.55441 25.1072 8.51851 25.678 10.52 25.6508H387.434C388.802 25.6917 390.163 25.4413 391.427 24.9161C392.691 24.3909 393.829 23.603 394.766 22.6045C394.871 22.5032 394.97 22.3954 395.062 22.2818L395.23 22.0624L395.527 21.6751C395.957 21.0747 396.328 20.4351 396.637 19.7647C396.766 19.4808 396.882 19.1968 396.999 18.8999C397.151 18.4769 397.28 18.046 397.386 17.6091V17.4671C397.38 17.407 397.38 17.3465 397.386 17.2864L397.463 16.9508L397.541 16.5506C397.541 16.3699 397.541 16.2021 397.631 16.0214C397.721 15.8407 397.709 15.4276 397.734 15.1437C397.76 14.8597 397.734 14.2272 397.734 13.7754C397.941 13.3882 397.928 13.1429 397.915 12.8848Z" fill="url(#paint0_linear_1_1775)"/>
<path d="M109.834 3.48771H108.04C98.4623 3.48771 55.1172 3.26828 50.4574 3.03593L26.2162 1.74513L20.9626 1.44825H20.8851L15.3734 1.12555L35.6261 1.74513C47.5273 2.10656 61.2872 2.54543 66.9409 2.76487L69.3031 2.88104C71.8847 3.08757 98.3719 3.33282 106.078 3.4619H106.194H107.95C108.551 3.49866 109.155 3.49866 109.757 3.4619L109.834 3.48771Z" fill="#FFDE55"/>
<path d="M397.941 11.9166V11.4519V10.7549C397.887 10.0991 397.788 9.44783 397.644 8.80579C397.644 8.72834 397.644 8.6509 397.644 8.57345C397.644 8.496 397.541 8.14748 397.476 7.94096C397.476 7.83769 397.476 7.72152 397.373 7.61826L397.257 7.28265C397.26 7.26125 397.26 7.2395 397.257 7.21811C397.15 6.9746 397.03 6.73755 396.895 6.50817C396.561 5.67609 396.128 4.88732 395.604 4.15891L395.488 3.99111L395.114 3.51351L394.765 3.11336L394.417 2.75194C394.21 2.54485 393.99 2.35085 393.759 2.17108C391.961 0.718283 389.706 -0.0500741 387.395 0.00253277H10.4813C9.96756 0.00295248 9.45442 0.0374495 8.94525 0.105797C8.05796 0.209831 7.18924 0.435696 6.36365 0.777013L6.10549 0.893185C5.78806 1.03334 5.4817 1.19731 5.18902 1.38369C4.94676 1.54199 4.71401 1.71439 4.49199 1.90001L3.92403 2.41633L3.53679 2.77775C3.12824 3.17701 2.75268 3.60869 2.4138 4.06855L2.0911 4.55906C1.91039 4.84303 1.74258 5.12701 1.58769 5.41099C1.2372 6.06887 0.943546 6.75549 0.709941 7.46336L0.619585 7.57953C0.619585 7.77315 0.490505 7.97968 0.438873 8.18621V8.31529V8.48309L0.322702 8.87033V8.99941C0.322702 9.10268 0.322702 9.19303 0.322702 9.2963C0.322702 9.39956 0.322702 9.2963 0.322702 9.37374V9.59318C0.316663 9.61864 0.316663 9.64517 0.322702 9.67063C0.322702 9.67063 0.322702 9.67063 0.322702 9.74808C0.31643 9.81678 0.31643 9.8859 0.322702 9.9546C0.316449 10.0707 0.316449 10.187 0.322702 10.3031C0.322702 10.5226 0.322701 10.742 0.258161 10.9614C0.193621 11.1809 0.258161 11.1034 0.258161 11.168C0.258161 11.3616 0.258161 11.5681 0.258161 11.7617V12.0973C0.258161 12.3168 0.258161 12.5362 0.258161 12.7427V12.9493C0.320547 13.9648 0.480482 14.9719 0.735757 15.9568C0.735757 16.2021 0.864837 16.4473 0.942285 16.6797L1.01973 16.912V17.054C1.01973 17.054 1.01973 17.1702 1.01973 17.2218V17.3509C1.01973 17.48 1.123 17.622 1.17463 17.751L1.25208 17.9188L1.4457 18.3577L1.52315 18.4997C1.56518 18.6011 1.61258 18.7002 1.66513 18.7966C1.66513 18.874 1.75549 18.9515 1.79421 19.0418C1.82052 19.0777 1.84221 19.1167 1.85875 19.158C2.51506 20.3302 3.39166 21.3646 4.44035 22.2043C4.86212 22.5307 5.31126 22.82 5.78279 23.0691C7.25176 23.8061 8.87675 24.178 10.52 24.1534H387.434C389.324 24.1866 391.185 23.6855 392.803 22.7077C393.106 22.516 393.399 22.3092 393.681 22.0881L393.784 21.9978H393.862L394.456 21.4556C395.017 20.8926 395.515 20.2693 395.94 19.5969C396.121 19.3129 396.276 19.0289 396.431 18.732C396.608 18.3966 396.768 18.0519 396.908 17.6994L396.986 17.5058C396.989 17.4456 396.989 17.3853 396.986 17.3251C397.019 17.273 397.045 17.2165 397.063 17.1573C397.056 17.1232 397.056 17.088 397.063 17.054C397.063 16.8346 397.205 16.628 397.257 16.4215C397.308 16.215 397.36 16.0988 397.399 15.931C397.437 15.7632 397.541 15.3372 397.605 15.0404C397.731 14.3535 397.813 13.6594 397.851 12.9622V12.8976C397.856 12.8462 397.856 12.7942 397.851 12.7427C397.851 12.5362 397.851 12.3297 397.851 12.1231V11.9166H397.941ZM392.649 15.6599C392.545 15.9697 392.442 16.2666 392.313 16.5764C392.004 17.3374 391.567 18.0402 391.022 18.6546C390.743 18.9746 390.426 19.2605 390.08 19.5065C389.007 20.2302 387.734 20.6003 386.44 20.565L11.2171 20.565C10.3609 20.5831 9.51362 20.3879 8.75163 19.997C7.90938 19.5452 7.2115 18.8652 6.73798 18.035C6.56456 17.7548 6.4135 17.4613 6.2862 17.1573C5.71292 15.7972 5.38515 14.3463 5.3181 12.8718C5.3181 12.8718 5.3181 12.7427 5.3181 12.6911V11.8263C5.35737 11.1377 5.43927 10.4523 5.56335 9.77389C5.56335 9.58027 5.6408 9.38665 5.69243 9.19303C5.76127 8.90906 5.83872 8.62508 5.92477 8.3411C6.23543 7.30492 6.76845 6.34901 7.48664 5.54007C7.78071 5.21765 8.11983 4.9394 8.49347 4.71395C9.16778 4.29653 9.93499 4.05262 10.7266 4.00401H11.23L386.466 4.00401C387.71 3.94197 388.943 4.27408 389.988 4.9531C391.033 5.63212 391.838 6.62345 392.287 7.78606C392.412 8.07212 392.519 8.3652 392.61 8.6638C392.821 9.36202 392.959 10.08 393.023 10.8065C393.023 11.1034 393.023 11.4003 393.023 11.6714C393.023 11.9424 393.023 12.0844 393.023 12.2651C393.06 13.4088 392.934 14.5519 392.649 15.6599Z" fill="url(#paint1_linear_1_1775)"/>
<g style="mix-blend-mode:overlay" opacity="0.4">
<path d="M1.58768 5.3465C1.58768 5.3465 22.5632 6.12098 29.611 6.28878C36.6587 6.45658 44.765 6.75347 44.765 6.75347C44.765 6.75347 23.7507 6.67602 16.3673 6.39204C8.98397 6.10807 6.84124 6.14679 4.35 6.14679C0.968099 6.14679 0.400146 8.49605 0.400146 8.49605C0.672232 7.40361 1.07077 6.34662 1.58768 5.3465Z" fill="#FFDE55"/>
</g>
<g style="mix-blend-mode:overlay" opacity="0.4">
<path d="M5.78279 2.80358C5.78279 2.80358 20.8206 3.20372 27.1584 2.98429C33.4963 2.76485 42.8933 2.41634 48.8052 1.77094C48.8052 1.77094 73.8983 2.33889 76.8801 2.44215C76.8801 2.44215 55.8788 2.30016 51.348 2.5196C36.1801 3.5574 20.9624 3.65224 5.78279 2.80358Z" fill="#FFDE55"/>
</g>
<g style="mix-blend-mode:overlay" opacity="0.4">
<path d="M30.3983 8.6767C29.4948 8.6767 14.5086 9.43827 5.55044 9.77388C3.21409 9.85133 1.2908 9.91587 0.129078 9.92877C0.122807 9.86007 0.122807 9.79094 0.129078 9.72225C0.129078 9.72225 0.129078 9.72225 0.129078 9.6448C0.123039 9.61933 0.123039 9.59281 0.129078 9.56735V9.34791C0.129078 9.34791 0.129078 9.34791 0.129078 9.27047L5.57626 9.18011C13.4372 9.05103 26.1 8.87032 30.3983 8.6767Z" fill="#FFDE55"/>
</g>
<g style="mix-blend-mode:overlay" opacity="0.4">
<path d="M1.04555 12.7427C1.04555 12.7427 29.0172 12.5878 33.4317 12.4846C37.8463 12.3813 83.7729 11.9811 83.7729 11.9811C83.7729 11.9811 47.9791 12.7685 38.6595 12.9492C29.3399 13.13 1.91038 13.0654 1.04555 12.7427Z" fill="#FFDE55"/>
</g>
<g style="mix-blend-mode:overlay" opacity="0.4">
<path d="M1.91038 17.9059C1.91038 17.9059 19.7751 17.9059 22.2018 18.1254C24.6285 18.3448 34.9936 18.4094 34.9936 18.4094L34.2449 18.7062C34.2449 18.7062 4.93085 18.3448 1.58768 18.7708L1.1488 17.9059H1.91038Z" fill="#FFDE55"/>
</g>
<g style="mix-blend-mode:overlay" opacity="0.4">
<path d="M21.6209 24.2051C21.6209 24.2051 36.0908 19.0419 37.317 18.4868C37.317 18.4868 56.2918 18.8224 58.228 18.8741C58.228 18.8741 42.3641 19.029 38.3755 19.4678C34.3869 19.9067 21.6209 24.2051 21.6209 24.2051Z" fill="#FFDE55"/>
</g>
<g style="mix-blend-mode:overlay" opacity="0.4">
<path d="M92.7569 18.3836C92.7569 18.3836 396.573 16.0472 397.463 15.9182L397.27 16.6281C397.27 16.6281 94.4478 18.4223 92.7569 18.3836Z" fill="#FFDE55"/>
</g>
<g style="mix-blend-mode:overlay" opacity="0.4">
<path d="M372.125 11.9037C372.125 11.9037 396.908 11.581 397.941 11.6197C398.02 12.0464 398.02 12.4839 397.941 12.9105C396.755 12.4265 395.476 12.2148 394.198 12.291C391.577 12.2651 372.125 11.9037 372.125 11.9037Z" fill="#FFDE55"/>
</g>
<g style="mix-blend-mode:overlay" opacity="0.4">
<path d="M397.579 8.77994C397.579 8.77994 372.732 7.81184 366.187 7.87638L338.951 8.2378L325.024 8.41852C325.024 8.41852 346.141 8.74122 352.13 8.59923C358.12 8.45724 364.186 8.49596 367.62 8.45724C371.053 8.41852 397.618 9.46406 397.76 9.64478L397.579 8.77994Z" fill="#FFDE55"/>
</g>
<g style="mix-blend-mode:overlay" opacity="0.4">
<path d="M61.5453 18.8482C61.5453 18.8482 78.3258 23.0304 79.978 23.4564C81.6302 23.8823 82.7274 24.1663 82.7274 24.1663L71.9363 24.2696L78.5194 23.5725L61.5453 18.8482Z" fill="#FFDE55"/>
</g>
<g style="mix-blend-mode:multiply" opacity="0.5">
<path d="M395.475 3.99111L393.823 3.87493C374.732 2.54541 53.1423 1.84838 48.8052 1.77093C39.3938 2.69135 29.941 3.1222 20.485 3.06173C14.4053 3.06173 9.15177 2.91974 5.71824 2.80357C4.87922 2.80357 4.15637 2.80357 3.5497 2.71321L3.93694 2.35179L4.49198 1.90001L7.80934 2.00327C15.0378 2.22271 27.3391 2.41633 39.3436 1.69348C42.3512 1.51277 45.3329 1.28043 48.1985 0.970633C48.2543 0.938288 48.3155 0.916415 48.3792 0.906093H48.7793C51.0899 0.647933 53.3101 0.351049 55.427 0.00253296H59.9964C58.2925 0.389773 56.4725 0.725381 54.5621 1.02227C60.4353 1.15135 69.8323 1.37078 79.7198 1.69348C89.3621 2.00327 384.736 2.41633 392.442 2.90683L394.766 3.07464L395.114 3.47479L395.475 3.99111Z" fill="#C97B3A"/>
<path d="M397.579 8.78H397.115L392.597 8.63801L83.9537 7.90225C60.6547 7.90225 22.6019 8.75418 5.67952 9.19305L0.619586 9.33504H0.232346C0.232346 9.20596 0.232346 9.08979 0.296886 8.96071V8.83163L0.374334 8.4573H0.877746L5.88605 8.32822C18.0583 8.01842 40.7377 7.46338 61.1968 7.19231L7.47374 5.52718L2.62033 5.38519H1.58769C1.74258 5.10122 1.91039 4.81724 2.0911 4.53326H3.3819L8.5451 4.70107L83.9666 7.03742C88.0971 7.03742 91.7759 7.03742 94.7835 7.1665C94.8576 7.16845 380.197 7.18972 380.26 7.2282C380.324 7.26669 380.376 7.32106 380.412 7.38593L392.274 7.74736L396.779 7.88934H397.36C397.36 8.09587 397.476 8.3024 397.528 8.52184C397.579 8.74127 397.567 8.70255 397.579 8.78Z" fill="#C97B3A"/>
<path d="M397.928 11.581H397.799H393.126L5.30519 12.7427H0C0 12.5362 0 12.3168 0 12.0973V11.8779H0.103264H5.331L393.023 10.8065H397.618H397.851V11.5036L397.928 11.581Z" fill="#C97B3A"/>
<path d="M397.67 15.2573C397.67 15.5413 397.605 15.8381 397.567 16.135H397.257L391.009 16.5377L92.2664 18.4481L389.706 18.6546L396.353 18.7321H396.999C396.882 19.0289 396.766 19.3129 396.637 19.5969H395.863L388.763 19.5065L86.2384 19.1968H86.0835H85.8124L64.5529 18.8741L71.6136 20.565L84.6507 23.6887C84.733 23.7082 84.8077 23.7518 84.8651 23.8138C84.9226 23.8759 84.9603 23.9537 84.9734 24.0373V24.2051L85.1928 25.6508H84.3151L84.1344 24.5278L83.0759 24.2696L67.8574 20.565L61.8552 19.1968C61.7844 19.1781 61.7192 19.1424 61.6652 19.093C61.6113 19.0435 61.5701 18.9817 61.5454 18.9128L37.317 18.5514L37.1751 18.6417L31.6762 20.6295L21.6209 24.2696L20.8852 24.5407L19.9816 25.6508H18.8973L19.9816 24.2051L20.2656 23.8436C20.3152 23.7787 20.3824 23.7294 20.4592 23.7016L29.1205 20.565L34.9549 18.461L6.73798 18.035L1.14881 17.906H0.619583C0.542135 17.6349 0.477595 17.3767 0.413055 17.1057V17.0282H0.839019L6.32492 17.1057L86.2255 18.3061L391.397 15.6083L397.502 15.2315L397.67 15.2573Z" fill="#C97B3A"/>
<path d="M281.498 15.2573C281.498 15.5412 281.433 15.8381 281.394 16.135H281.085L274.837 16.5377L260.07 18.4481L273.534 18.6546L280.181 18.732H280.827C280.71 19.0289 280.594 19.3129 280.465 19.5969H279.691L272.591 19.5065L254.042 19.1967H253.888H253.616L232.357 18.874L239.418 20.565L252.455 23.6887C252.537 23.7082 252.612 23.7518 252.669 23.8138C252.727 23.8759 252.764 23.9537 252.777 24.0372V24.205L252.997 25.6507H252.119L251.938 24.5277L250.88 24.2696L235.661 20.565L229.659 19.1967C229.588 19.178 229.523 19.1424 229.469 19.093C229.415 19.0435 229.374 18.9817 229.349 18.9128L205.121 18.5513L204.979 18.6417L199.48 20.6295L189.425 24.2696L188.689 24.5406L187.786 25.6507H186.701L187.786 24.205L188.07 23.8436C188.119 23.7787 188.186 23.7294 188.263 23.7016L196.925 20.565L202.759 18.461L174.542 18.035L168.953 17.9059H168.424C168.346 17.6349 168.282 17.3767 168.217 17.1056V17.0282H168.643L174.129 17.1056L254.03 18.3061L275.224 15.6083L281.33 15.2314L281.498 15.2573Z" fill="#C97B3A"/>
</g>
<path d="M7.22849 0.467252C7.22849 0.467252 8.17077 0.00256348 12.7789 0.00256348H39.7567C39.7567 0.00256348 8.85489 0.505976 7.22849 0.467252Z" fill="#FFDE55"/>
<path d="M395.475 3.99105C395.475 3.99105 368.846 2.6228 365.142 2.6228C365.142 2.6228 382.516 3.56509 385.898 3.81034C389.28 4.05559 396.147 5.10114 396.728 6.22414C396.425 5.42112 396.003 4.66831 395.475 3.99105Z" fill="#FFDE55"/>
<path d="M60.1255 0.00256348H102.425C102.425 0.00256348 95.1578 0.583424 90.4464 0.5447C85.735 0.505976 60.1255 0.00256348 60.1255 0.00256348Z" fill="#FFDE55"/>
<g style="mix-blend-mode:multiply" opacity="0.5">
<path d="M11.2171 20.6424C6.18293 20.6424 5.43427 14.9371 5.3181 12.8976C5.3181 13.1558 5.3181 13.3623 5.3181 13.4656C5.3181 14.3175 5.4859 21.8558 11.2945 21.8558H52.2516C53.6524 21.8836 55.02 21.4277 56.124 20.565L11.2171 20.6424Z" fill="#9E4000"/>
</g>
<path d="M52.2516 20.6167H11.2816C5.473 20.6167 5.30519 13.0784 5.30519 12.2265C5.30519 11.3745 5.473 3.82336 11.2816 3.82336H52.2516C58.0602 3.82336 59.0154 9.45125 59.0154 12.2265C59.0283 14.7306 58.0731 20.6167 52.2516 20.6167Z" fill="url(#paint2_linear_1_1775)"/>
<g style="mix-blend-mode:overlay" opacity="0.6">
<path d="M31.9215 2.27435C44.8295 2.27435 48.9084 3.56515 48.9213 5.34646C48.9342 7.12776 44.9069 8.62509 31.9602 8.70254C19.0135 8.77999 14.4957 7.41174 14.4828 5.63043C14.4699 3.84913 18.9618 2.33889 31.9215 2.27435Z" fill="white"/>
</g>
<g style="mix-blend-mode:screen" opacity="0.7">
<path d="M16.3028 5.79826C29.3141 5.79826 49.8636 6.04351 49.8636 6.04351C55.4786 6.04351 57.0534 9.11561 57.1825 11.1293C57.1825 10.8195 57.1825 11.2325 57.1825 11.1293C57.1825 10.2902 56.4596 4.94633 51.1157 4.94633H12.7273C11.2508 4.88668 9.80588 5.38458 8.67955 6.34112C7.55322 7.29767 6.82788 8.64287 6.64761 10.1095C7.46082 7.57956 9.87461 5.83698 16.3028 5.79826Z" fill="#FFFDBD"/>
</g>
<g style="mix-blend-mode:multiply" opacity="0.4">
<path d="M57.2599 11.5165C57.3461 12.787 57.0038 14.0497 56.2877 15.1027C55.5717 16.1557 54.5233 16.9382 53.3101 17.3251C50.5606 18.4997 33.3026 18.8482 25.9193 18.8482H25.5578C18.1874 18.8482 13.2307 18.4997 10.4813 17.3251C9.26809 16.9382 8.21965 16.1557 7.5036 15.1027C6.78756 14.0497 6.44526 12.787 6.53145 11.5165C6.53145 11.8134 5.83442 19.4549 12.5982 19.4549H51.1931C57.9698 19.4549 57.2857 11.8134 57.2599 11.5165Z" fill="#D89000"/>
</g>
<defs>
<linearGradient id="paint0_linear_1_1775" x1="56.3176" y1="3.06178" x2="56.3176" y2="25.2894" gradientUnits="userSpaceOnUse">
<stop stop-color="#6D2C00"/>
<stop offset="0.42" stop-color="#9E4000"/>
<stop offset="1" stop-color="#9E4000"/>
</linearGradient>
<linearGradient id="paint1_linear_1_1775" x1="56.3176" y1="-0.191087" x2="56.3176" y2="23.1853" gradientUnits="userSpaceOnUse">
<stop stop-color="#F0CA57"/>
<stop offset="1" stop-color="#D45B1A"/>
</linearGradient>
<linearGradient id="paint2_linear_1_1775" x1="32.1668" y1="5.30778" x2="32.1668" y2="19.0806" gradientUnits="userSpaceOnUse">
<stop offset="0.2" stop-color="#FFF34A"/>
<stop offset="0.85" stop-color="#FF7C18"/>
<stop offset="1" stop-color="#FFC000"/>
</linearGradient>
</defs>
</svg>
