<svg width="430" height="432" viewBox="0 0 430 432" fill="none" xmlns="http://www.w3.org/2000/svg">
<path d="M113.57 257.862C113.57 257.862 4.08015 183.529 -23.7226 175.903L-32.5795 151.861L81.1343 152.509L132.041 256.829L113.57 257.862Z" fill="#D57F4C"/>
<path d="M237.006 226.418C223.023 212.777 195.685 189.001 183.764 178.818L207.2 248.617L315.967 295.114C332.026 295.718 355.35 293.712 320.177 280.857C276.42 264.864 254.693 243.67 237.256 226.661L237.006 226.418Z" fill="#D57F4C"/>
<path d="M60.4712 221.772C10.306 170.094 -59.315 154.358 -96.0082 154.909C-81.7847 119.726 -62.3371 15.6103 -50.0178 28.1417C-34.6188 43.8059 76.2641 110.215 140.122 141.697C203.981 173.179 216.12 224.563 245.696 247.465C273.439 268.949 290.381 258.486 367.526 294.733C429.243 323.731 452.613 401.313 456.584 436.48L411.654 438.993L340.266 442.988C314.332 415.059 253.039 357.226 215.338 349.32C168.212 339.437 123.178 286.37 60.4712 221.772Z" fill="#EBCC63"/>
<path d="M161.357 260.771C160.35 254.35 166.089 252.734 166.699 252.052C169.281 251.907 167.882 250.042 172.293 247.853C176.704 245.663 182.339 253.767 186.43 257.425C190.521 261.082 187.401 263.2 184.209 264.026C181.017 264.852 179.332 269.48 176.93 272.853C174.528 276.226 167.999 275.296 166.491 271.494C164.983 267.692 162.364 267.191 161.357 260.771Z" fill="#EEAD6D"/>
<path d="M384.192 323.443C379.771 318.508 370.99 319 367.152 319.862C362.001 320.414 361.986 320.151 357.467 320.404C352.947 320.657 356.035 329.552 360.487 339.666C364.939 349.78 375.843 347.874 386.066 345.359C396.288 342.844 389.719 329.61 384.192 323.443Z" fill="#EEAD6D"/>
<path d="M292.45 315.975C293.344 308.8 284.196 307.369 283.55 307.405C281.613 307.514 277.395 308.527 276.019 311.713C274.299 315.695 279.144 321.253 284.417 322.901C289.691 324.549 291.556 323.15 292.45 315.975Z" fill="#EEAD6D"/>
</svg>
