<svg width="33" height="32" viewBox="0 0 33 32" fill="none" xmlns="http://www.w3.org/2000/svg">
<path d="M28.8699 25.3947C26.2774 28.6355 22.4551 30.7614 18.2362 31.3087C14.0173 31.8561 9.74403 30.7805 6.34798 28.3167C3.06699 25.7115 0.992506 21.9669 0.577013 17.8996C0.161521 13.8324 1.43873 9.77242 4.13006 6.60534C6.72255 3.36452 10.5449 1.2387 14.7638 0.691357C18.9827 0.144011 23.256 1.21952 26.652 3.68341C29.933 6.28856 32.0075 10.0331 32.423 14.1004C32.8385 18.1677 31.5613 22.2276 28.8699 25.3947Z" fill="white"/>
<path d="M27.284 21.6865C26.2977 23.9029 24.6764 25.7771 22.625 27.0721C20.5736 28.3671 18.1843 29.0248 15.7591 28.962C13.334 28.8991 10.982 28.1186 9.0004 26.7191C7.01883 25.3196 5.49674 23.3639 4.62658 21.0994C3.75641 18.8349 3.57726 16.3632 4.11176 13.9968C4.64626 11.6305 5.87042 9.47579 7.62945 7.80515C9.38848 6.1345 11.6034 5.02295 13.9941 4.61104C16.3848 4.19913 18.844 4.50536 21.0607 5.49101C22.5329 6.14561 23.8617 7.08383 24.9712 8.25206C26.0808 9.42029 26.9493 10.7957 27.5272 12.2996C28.1051 13.8036 28.3811 15.4066 28.3393 17.0172C28.2976 18.6279 27.939 20.2145 27.284 21.6865Z" fill="#F6AE28"/>
<path style="mix-blend-mode:multiply" d="M27.284 21.8215C26.2977 24.0379 24.6764 25.9121 22.625 27.2072C20.5736 28.5022 18.1843 29.1598 15.7591 29.097C13.334 29.0342 10.982 28.2536 9.0004 26.8541C7.01883 25.4546 5.49674 23.4989 4.62658 21.2344C3.75641 18.9699 3.57726 16.4982 4.11176 14.1319C4.64626 11.7655 5.87042 9.61083 7.62945 7.94019C9.38848 6.26954 11.6034 5.15799 13.9941 4.74608C16.3848 4.33417 18.844 4.6404 21.0607 5.62605C22.5329 6.28065 23.8617 7.21887 24.9712 8.3871C26.0808 9.55533 26.9493 10.9307 27.5272 12.4346C28.1051 13.9386 28.3811 15.5417 28.3393 17.1523C28.2976 18.7629 27.939 20.3495 27.284 21.8215Z" fill="url(#paint0_linear_1_1808)"/>
<path style="mix-blend-mode:multiply" d="M26.878 20.5019C25.687 23.4201 23.3877 25.747 20.4839 26.9726C17.5802 28.1982 14.3089 28.2225 11.3873 27.0401C8.55031 25.6652 6.37536 23.2201 5.34055 20.2422C4.30574 17.2643 4.49576 13.9974 5.86883 11.1595C7.05974 8.24138 9.3591 5.91446 12.2629 4.68886C15.1666 3.46327 18.4379 3.439 21.3595 4.62137C24.1965 5.99623 26.3714 8.44135 27.4062 11.4192C28.441 14.3971 28.251 17.6641 26.878 20.5019Z" fill="url(#paint1_linear_1_1808)"/>
<path d="M27.9578 19.962C26.9801 22.1859 25.3641 24.0694 23.3146 25.3737C21.2651 26.678 18.8745 27.3445 16.4458 27.2885C14.0172 27.2325 11.6598 26.4566 9.67262 25.0592C7.68544 23.6618 6.15792 21.7059 5.28373 19.4393C4.40954 17.1727 4.22804 14.6976 4.76225 12.3277C5.29645 9.95789 6.5223 7.80002 8.28439 6.1277C10.0465 4.45539 12.2654 3.34394 14.66 2.93426C17.0545 2.52459 19.5167 2.83514 21.7345 3.82654C24.6926 5.14887 27.0074 7.58788 28.1734 10.611C29.3394 13.6342 29.2619 16.9958 27.9578 19.962Z" fill="url(#paint2_linear_1_1808)"/>
<path style="mix-blend-mode:screen" d="M27.524 19.5422C26.5884 21.6561 25.0474 23.4454 23.0956 24.6842C21.1438 25.9229 18.8687 26.5555 16.5576 26.502C14.2465 26.4486 12.0031 25.7115 10.1106 24.3839C8.2181 23.0563 6.76145 21.1977 5.92459 19.0428C5.08773 16.8878 4.90817 14.5333 5.40861 12.2764C5.90904 10.0195 7.06702 7.96145 8.73631 6.36223C10.4056 4.76301 12.5113 3.69429 14.7876 3.29104C17.0639 2.88778 19.4086 3.16807 21.5257 4.09652C22.9354 4.71476 24.2093 5.60519 25.2742 6.71676C26.3391 7.82832 27.1741 9.13916 27.7314 10.5741C28.2886 12.009 28.5572 13.5399 28.5216 15.0788C28.486 16.6178 28.147 18.1345 27.524 19.5422Z" fill="url(#paint3_linear_1_1808)"/>
<path d="M26.099 18.8224C25.285 20.6517 23.9468 22.1984 22.2537 23.267C20.5605 24.3357 18.5885 24.8782 16.587 24.8259C14.5855 24.7737 12.6445 24.1291 11.0094 22.9736C9.37432 21.8181 8.11863 20.2037 7.40116 18.3345C6.68369 16.4653 6.53667 14.4253 6.97869 12.4725C7.42072 10.5198 8.43193 8.74194 9.88444 7.36394C11.3369 5.98593 13.1655 5.06963 15.1388 4.73094C17.1121 4.39225 19.1415 4.64637 20.9704 5.46117C23.4219 6.55337 25.3393 8.57443 26.301 11.08C27.2628 13.5855 27.1901 16.3705 26.099 18.8224Z" fill="url(#paint4_linear_1_1808)"/>
<path d="M25.2889 18.5224C24.5368 20.213 23.3003 21.6427 21.7358 22.6307C20.1713 23.6187 18.349 24.1206 16.4993 24.0731C14.6496 24.0256 12.8554 23.4308 11.3437 22.3638C9.83194 21.2968 8.67047 19.8056 8.0061 18.0787C7.34172 16.3517 7.20426 14.4665 7.61109 12.6614C8.01792 10.8564 8.95079 9.21244 10.2918 7.93745C11.6327 6.66246 13.3216 5.81365 15.1449 5.49833C16.9682 5.18301 18.844 5.41532 20.5353 6.16591C21.6591 6.66467 22.6737 7.38003 23.5209 8.27109C24.3681 9.16216 25.0314 10.2115 25.4729 11.359C25.9144 12.5066 26.1254 13.7299 26.0938 14.959C26.0622 16.1882 25.7887 17.3991 25.2889 18.5224Z" fill="url(#paint5_linear_1_1808)"/>
<path opacity="0.5" d="M6.73918 20.6219C7.82444 22.7423 9.60998 24.4219 11.7928 25.3756C16.8164 27.61 19.6206 26.2004 19.6206 26.2004C14.7594 26.1113 10.1299 24.1065 6.73918 20.6219Z" fill="white"/>
<path opacity="0.3" d="M24.1339 11.8493C23.4591 13.3489 20.6699 13.5739 17.8807 12.3292C15.0915 11.0846 13.3819 8.86518 14.0417 7.3656C14.7016 5.86602 17.5058 5.65608 20.295 6.90073C23.0842 8.14538 24.7937 10.3498 24.1339 11.8493Z" fill="url(#paint6_linear_1_1808)"/>
<path opacity="0.7" d="M19.8452 7.80038C22.3345 8.91007 23.969 10.7995 23.819 12.2991C23.9318 12.1752 24.0231 12.0333 24.089 11.8792C24.7638 10.3797 23.0393 8.16028 20.265 6.91563C17.4908 5.67097 14.6716 5.88091 14.0118 7.3805C13.937 7.54114 13.8913 7.71376 13.8768 7.89035C14.8665 6.82565 17.3558 6.69069 19.8452 7.80038Z" fill="url(#paint7_linear_1_1808)"/>
<path opacity="0.5" d="M26.9378 8.98511C25.8774 6.87289 24.1181 5.19313 21.9592 4.23144C16.9356 1.99707 14.1463 3.40667 14.1463 3.40667C18.9772 3.5144 23.5719 5.51815 26.9378 8.98511Z" fill="white"/>
<g clip-path="url(#clip0_1_1808)">
<path d="M20.0591 15.6095C20.798 15.2318 21.2682 14.5599 21.1591 13.4433C21.0163 11.9149 19.7611 11.4029 18.0989 11.2601V9.14417H16.8058V11.2012C16.4698 11.2012 16.1258 11.2098 15.7813 11.2179V9.14417H14.4882V11.2601C14.0129 11.2746 13.4591 11.2673 11.894 11.2601V12.6371C12.9146 12.6192 13.4505 12.5536 13.5733 13.208V19.0014C13.4953 19.5207 13.0796 19.4461 12.1545 19.4299L11.8944 20.9664C14.2521 20.9664 14.4891 20.9749 14.4891 20.9749V22.7869H15.7822V21.0001C16.1347 21.0086 16.4788 21.0086 16.8066 21.0086V22.7873H18.0997V20.9754C20.2659 20.8577 21.7142 20.312 21.9073 18.2716C22.0582 16.6344 21.2861 15.9037 20.06 15.6099L20.0591 15.6095ZM15.8065 12.7296C16.5368 12.7296 18.8206 12.5028 18.8206 14.0227C18.8206 15.4752 16.5368 15.3073 15.8065 15.3073V12.7296ZM15.8065 19.438V16.5999C16.6796 16.5999 19.3536 16.3565 19.3536 18.0187C19.3536 19.6226 16.6796 19.4376 15.8065 19.4376V19.438Z" fill="#FAD577"/>
<path d="M19.7798 15.2227C20.5186 14.8449 20.9889 14.173 20.8797 13.0564C20.7369 11.528 19.4818 11.016 17.8195 10.8732V8.75729H16.5264V10.8144C16.1905 10.8144 15.8464 10.8229 15.502 10.831V8.75729H14.2089V10.8732C13.7335 10.8877 13.1797 10.8804 11.6146 10.8732V12.2502C12.6353 12.2323 13.1712 12.1667 13.294 12.8211V18.6146C13.216 19.1338 12.8003 19.0592 11.8751 19.043L11.6151 20.5795C13.9727 20.5795 14.2097 20.5881 14.2097 20.5881V22.4H15.5028V20.6132C15.8554 20.6217 16.1994 20.6217 16.5273 20.6217V22.4004H17.8204V20.5885C19.9866 20.4708 21.4348 19.9251 21.6279 17.8847C21.7789 16.2476 21.0068 15.5168 19.7806 15.2231L19.7798 15.2227ZM15.5271 12.3428C16.2574 12.3428 18.5413 12.116 18.5413 13.6358C18.5413 15.0884 16.2574 14.9204 15.5271 14.9204V12.3428ZM15.5271 19.0511V16.213C16.4002 16.213 19.0742 15.9696 19.0742 17.6319C19.0742 19.2357 16.4002 19.0507 15.5271 19.0507V19.0511Z" fill="url(#paint8_linear_1_1808)"/>
</g>
<defs>
<linearGradient id="paint0_linear_1_1808" x1="9.52174" y1="27.4566" x2="18.0416" y2="9.16611" gradientUnits="userSpaceOnUse">
<stop stop-color="#FFAC1C"/>
<stop offset="1" stop-color="#F9D445"/>
</linearGradient>
<linearGradient id="paint1_linear_1_1808" x1="9.82337" y1="26.4932" x2="18.3371" y2="8.21631" gradientUnits="userSpaceOnUse">
<stop stop-color="#FFAC1C"/>
<stop offset="1" stop-color="#F9D445"/>
</linearGradient>
<linearGradient id="paint2_linear_1_1808" x1="10.2047" y1="25.6471" x2="18.7246" y2="7.35656" gradientUnits="userSpaceOnUse">
<stop stop-color="#FFAC1C"/>
<stop offset="1" stop-color="#F9D445"/>
</linearGradient>
<linearGradient id="paint3_linear_1_1808" x1="10.5009" y1="24.9921" x2="18.6198" y2="7.55515" gradientUnits="userSpaceOnUse">
<stop stop-color="#FFAC1C"/>
<stop offset="0.99" stop-color="#F9D477"/>
</linearGradient>
<linearGradient id="paint4_linear_1_1808" x1="11.1201" y1="23.5805" x2="18.1419" y2="8.50562" gradientUnits="userSpaceOnUse">
<stop stop-color="#FFAC1C"/>
<stop offset="0.95" stop-color="#FF6100"/>
</linearGradient>
<linearGradient id="paint5_linear_1_1808" x1="11.2928" y1="23.0509" x2="17.7967" y2="9.08889" gradientUnits="userSpaceOnUse">
<stop stop-color="#FFAC1C"/>
<stop offset="1" stop-color="#F9D445"/>
</linearGradient>
<linearGradient id="paint6_linear_1_1808" x1="15.9554" y1="13.1022" x2="18.0642" y2="8.42161" gradientUnits="userSpaceOnUse">
<stop stop-color="#FFCD25"/>
<stop offset="0.99" stop-color="white"/>
</linearGradient>
<linearGradient id="paint7_linear_1_1808" x1="16.9228" y1="10.8457" x2="18.1586" y2="8.10284" gradientUnits="userSpaceOnUse">
<stop stop-color="#FFCD25"/>
<stop offset="0.99" stop-color="white"/>
</linearGradient>
<linearGradient id="paint8_linear_1_1808" x1="16.6307" y1="8.75729" x2="16.6307" y2="22.4004" gradientUnits="userSpaceOnUse">
<stop stop-color="#FF6201"/>
<stop offset="1" stop-color="#FFA018"/>
</linearGradient>
<clipPath id="clip0_1_1808">
<rect width="13.6427" height="13.6427" fill="white" transform="translate(9.80862 8.75717)"/>
</clipPath>
</defs>
</svg>
